<?xml version="1.0" encoding="UTF-8"?>
<svg version="1.1" xmlns="http://www.w3.org/2000/svg" width="500" height="500">
<path d="M0 0 C0.92095459 0.00563965 1.84190918 0.0112793 2.79077148 0.01708984 C22.20652376 0.36109317 37.47905625 8.34571982 50.890625 22.1328125 C55.32082016 27.32619254 58.52134847 32.58809504 59.75 39.3125 C60.46953857 39.28631592 61.18907715 39.26013184 61.93041992 39.2331543 C79.48039254 38.67826442 92.854821 38.4711119 106.75 50.3125 C107.74 50.993125 108.73 51.67375 109.75 52.375 C117.28972622 58.75794631 122.87876506 70.00615344 124.04711914 79.80419922 C124.18659631 82.4195833 124.21798792 85.0061601 124.1875 87.625 C124.17920166 88.54708252 124.17090332 89.46916504 124.16235352 90.41918945 C123.82273679 104.16218528 118.7123442 114.06579292 109.4375 124.0625 C99.90551243 133.10402736 87.80917474 137.46572296 74.8125 137.4375 C73.62785156 137.44007813 72.44320312 137.44265625 71.22265625 137.4453125 C67.97464257 137.3210915 64.93796283 136.92575697 61.75 136.3125 C61.39216812 147.16673383 61.94101414 157.49817257 63.68286133 168.22924805 C64.39886987 172.64910111 64.92641816 176.81383693 64.75 181.3125 C64.09 181.3125 63.43 181.3125 62.75 181.3125 C62.75 181.9725 62.75 182.6325 62.75 183.3125 C38.72701575 197.78560656 8.15283434 199.81598813 -19.22900391 197.46826172 C-21.09083579 197.32476707 -22.95793615 197.2546355 -24.82421875 197.19140625 C-31.98459609 196.9169667 -38.68528992 195.69320041 -45.625 194 C-46.45765381 193.79922852 -47.29030762 193.59845703 -48.14819336 193.39160156 C-53.60779307 191.9809088 -58.28565801 189.98867976 -63.25 187.3125 C-63.25 186.6525 -63.25 185.9925 -63.25 185.3125 C-63.91 185.3125 -64.57 185.3125 -65.25 185.3125 C-65.06640625 182.96484375 -65.06640625 182.96484375 -64.25 180.3125 C-47.32905582 169.25244151 -19.00398921 166.90707533 0.79296875 165.83203125 C1.50264801 165.79260406 2.21232727 165.75317688 2.94351196 165.71255493 C6.49438046 165.5193788 10.04386367 165.35046778 13.59765625 165.22167969 C21.20288816 164.86495098 27.07958798 164.0325559 33.75 160.3125 C34.6575 159.94125 35.565 159.57 36.5 159.1875 C42.56254114 154.13538238 44.42699975 145.7694105 45.75 138.3125 C44.5125 137.94125 43.275 137.57 42 137.1875 C38.12459136 135.90176192 34.57210105 134.29550422 30.9375 132.4375 C9.72584998 121.67138544 -14.77172435 117.02623213 -38.2734375 123.265625 C-40.77827134 124.59229589 -41.17575754 125.73054883 -42.25 128.3125 C-43.19670431 129.65411526 -44.15593802 130.98694372 -45.125 132.3125 C-51.63369958 142.0596745 -53.06650685 152.91359227 -54.25 164.3125 C-53.45335937 164.10753906 -52.65671875 163.90257812 -51.8359375 163.69140625 C-50.77632813 163.42199219 -49.71671875 163.15257812 -48.625 162.875 C-47.58085937 162.60816406 -46.53671875 162.34132813 -45.4609375 162.06640625 C-39.65955798 160.70428186 -34.17914465 160.17173835 -28.2265625 160.21484375 C-27.48038666 160.2162587 -26.73421082 160.21767365 -25.96542358 160.21913147 C-23.60190682 160.22469126 -21.23848773 160.23723611 -18.875 160.25 C-17.26432429 160.2550202 -15.65364709 160.2595822 -14.04296875 160.26367188 C-10.11194201 160.27464749 -6.18098752 160.29188404 -2.25 160.3125 C-2.25 160.9725 -2.25 161.6325 -2.25 162.3125 C-5.98991869 163.16122694 -9.5475801 163.46360278 -13.375 163.625 C-29.01217907 164.68931062 -46.02939415 168.2732524 -59.9375 175.6875 C-63.42904107 177.40033147 -63.83134283 177.45950044 -67.25 176.3125 C-66.25 165.3125 -65.25 154.3125 -64.25 143.3125 C-65.03745605 143.54308105 -65.82491211 143.77366211 -66.63623047 144.01123047 C-81.09769978 148.14776021 -94.47199665 146.96910179 -107.7734375 139.875 C-118.80565937 132.91460765 -126.45333325 122.75712992 -130.25 110.3125 C-132.96025395 96.5527492 -131.39330255 81.94340659 -123.75 69.9609375 C-115.56784609 58.93775792 -105.64898642 51.58843267 -92.25 48.3125 C-89.44112533 47.94241178 -86.64121972 47.76503563 -83.8125 47.625 C-82.74418945 47.55442383 -82.74418945 47.55442383 -81.65429688 47.48242188 C-76.71773188 47.20891555 -72.13938035 47.57936856 -67.25 48.3125 C-66.7653125 47.27351563 -66.280625 46.23453125 -65.78125 45.1640625 C-61.75777354 36.72074292 -57.61147165 29.26995473 -51.25 22.3125 C-50.70988281 21.69246094 -50.16976562 21.07242188 -49.61328125 20.43359375 C-36.83603543 6.60446813 -18.52525216 -0.11937473 0 0 Z M-36.25 26.3125 C-36.25 26.9725 -36.25 27.6325 -36.25 28.3125 C-36.91 28.3125 -37.57 28.3125 -38.25 28.3125 C-39.24 30.7875 -39.24 30.7875 -40.25 33.3125 C-36.2829744 31.8257854 -32.6651143 29.9436661 -28.9375 27.9375 C-14.54982668 20.60947483 -0.13736785 19.58130611 15.75 19.3125 C14.31065858 16.43381717 12.62431323 16.26725276 9.625 15.1875 C-6.48073255 10.15564983 -24.35680246 13.8069156 -36.25 26.3125 Z M-100.875 66.8125 C-101.69226563 67.2765625 -102.50953125 67.740625 -103.3515625 68.21875 C-103.97804687 68.5796875 -104.60453125 68.940625 -105.25 69.3125 C-105.25 69.9725 -105.25 70.6325 -105.25 71.3125 C-105.91 71.3125 -106.57 71.3125 -107.25 71.3125 C-113.60038188 78.95711731 -115.69135458 87.88667653 -115.01953125 97.66796875 C-114.2943508 102.75662813 -113.64615379 106.33628688 -110.25 110.3125 C-110.22421875 109.23613281 -110.1984375 108.15976562 -110.171875 107.05078125 C-109.57939585 89.70929557 -104.73050454 78.18855741 -94.25 64.3125 C-96.99251195 64.3125 -98.50505845 65.45824768 -100.875 66.8125 Z " fill="#FD7131" transform="translate(253.25,154.6875)"/>
<path d="M0 0 C3.78001501 0.86581349 5.56226816 1.37520327 7.828125 4.609375 C8.29734375 5.64578125 8.7665625 6.6821875 9.25 7.75 C9.72953125 8.77609375 10.2090625 9.8021875 10.703125 10.859375 C11.13109375 11.89578125 11.5590625 12.9321875 12 14 C12.37898437 14.91007813 12.75796875 15.82015625 13.1484375 16.7578125 C16.10667525 28.0208278 15.34689899 42.65217783 10 53 C2.74243019 65.39535437 -7.052168 74.17187189 -20.89453125 78.45703125 C-25.66574532 79.68745566 -29.9933702 80.13573644 -34.9375 80.125 C-36.12214844 80.12757813 -37.30679688 80.13015625 -38.52734375 80.1328125 C-41.77535743 80.0085915 -44.81203717 79.61325697 -48 79 C-48.35783188 89.85423383 -47.80898586 100.18567257 -46.06713867 110.91674805 C-45.35113013 115.33660111 -44.82358184 119.50133693 -45 124 C-45.66 124 -46.32 124 -47 124 C-47 124.66 -47 125.32 -47 126 C-71.02298425 140.47310656 -101.59716566 142.50348813 -128.97900391 140.15576172 C-130.84083579 140.01226707 -132.70793615 139.9421355 -134.57421875 139.87890625 C-141.73459609 139.6044667 -148.43528992 138.38070041 -155.375 136.6875 C-156.20765381 136.48672852 -157.04030762 136.28595703 -157.89819336 136.07910156 C-163.35779307 134.6684088 -168.03565801 132.67617976 -173 130 C-173 129.34 -173 128.68 -173 128 C-173.66 128 -174.32 128 -175 128 C-174.81640625 125.65234375 -174.81640625 125.65234375 -174 123 C-157.07905582 111.93994151 -128.75398921 109.59457533 -108.95703125 108.51953125 C-108.24735199 108.48010406 -107.53767273 108.44067688 -106.80648804 108.40005493 C-103.25561954 108.2068788 -99.70613633 108.03796778 -96.15234375 107.90917969 C-88.54711184 107.55245098 -82.67041202 106.7200559 -76 103 C-75.0925 102.62875 -74.185 102.2575 -73.25 101.875 C-67.18745886 96.82288238 -65.32300025 88.4569105 -64 81 C-65.2375 80.62875 -66.475 80.2575 -67.75 79.875 C-71.62540864 78.58926192 -75.17789895 76.98300422 -78.8125 75.125 C-100.02415002 64.35888544 -124.52172435 59.71373213 -148.0234375 65.953125 C-150.52827134 67.27979589 -150.92575754 68.41804883 -152 71 C-152.94670431 72.34161526 -153.90593802 73.67444372 -154.875 75 C-161.38369958 84.7471745 -162.81650685 95.60109227 -164 107 C-163.20335937 106.79503906 -162.40671875 106.59007812 -161.5859375 106.37890625 C-160.52632813 106.10949219 -159.46671875 105.84007812 -158.375 105.5625 C-157.33085937 105.29566406 -156.28671875 105.02882813 -155.2109375 104.75390625 C-149.40955798 103.39178186 -143.92914465 102.85923835 -137.9765625 102.90234375 C-137.23038666 102.9037587 -136.48421082 102.90517365 -135.71542358 102.90663147 C-133.35190682 102.91219126 -130.98848773 102.92473611 -128.625 102.9375 C-127.01432429 102.9425202 -125.40364709 102.9470822 -123.79296875 102.95117188 C-119.86194201 102.96214749 -115.93098752 102.97938404 -112 103 C-112 103.66 -112 104.32 -112 105 C-115.73991869 105.84872694 -119.2975801 106.15110278 -123.125 106.3125 C-138.76217907 107.37681062 -155.77939415 110.9607524 -169.6875 118.375 C-173.17904107 120.08783147 -173.58134283 120.14700044 -177 119 C-176 108 -175 97 -174 86 C-174.78745605 86.23058105 -175.57491211 86.46116211 -176.38623047 86.69873047 C-190.84788242 90.83531246 -204.19499748 89.64781734 -217.50390625 82.578125 C-223.08351419 79.05048555 -229.73641611 74.69610758 -231.5 68 C-231.665 67.01 -231.83 66.02 -232 65 C-232.66 64.67 -233.32 64.34 -234 64 C-234.40729228 61.67843403 -234.74438677 59.3431213 -235 57 C-234.06542969 57.27714844 -233.13085938 57.55429687 -232.16796875 57.83984375 C-221.42604386 60.85754945 -211.13110126 61.75801954 -200 62 C-200.37253906 61.24074219 -200.74507812 60.48148437 -201.12890625 59.69921875 C-201.60199219 58.70535156 -202.07507813 57.71148437 -202.5625 56.6875 C-203.03816406 55.70136719 -203.51382813 54.71523438 -204.00390625 53.69921875 C-205 51 -205 51 -204 48 C-203.13375 49.3921875 -203.13375 49.3921875 -202.25 50.8125 C-199.64285096 54.50596113 -197.89175064 56.63739104 -193.37109375 57.50390625 C-186.04049894 57.65032292 -181.39645351 56.20473611 -175.1796875 52.3125 C-173 51 -173 51 -171 51 C-171 50.34 -171 49.68 -171 49 C-165.58823529 45 -165.58823529 45 -163 45 C-163 44.34 -163 43.68 -163 43 C-156.67424216 38.19736389 -149.47653647 35.44859541 -142 33 C-140.989375 32.62875 -139.97875 32.2575 -138.9375 31.875 C-130.1133863 29.2465406 -121.57391858 28.65525686 -112.39770508 28.68432617 C-110.33294925 28.68746887 -108.26965624 28.66400865 -106.20507812 28.63867188 C-97.93279236 28.6005195 -90.47620837 29.5003416 -82.37817383 31.28979492 C-77.97557732 32.2153679 -73.67567653 32.63653983 -69.1875 32.8125 C-68.35057617 32.84674072 -67.51365234 32.88098145 -66.65136719 32.91625977 C-45.95940734 33.52221076 -25.89365877 29.21952103 -10.25 14.75 C-6.10466446 10.36377329 -3.07289272 5.16507499 0 0 Z " fill="#FD3D30" transform="translate(363,212)"/>
<path d="M0 0 C3.88958595 4.51693852 3.88958595 4.51693852 4.5 7.1875 C4.81725422 9.16835804 4.81725422 9.16835804 6.75 10 C7.86375 10.495 7.86375 10.495 9 11 C9.70125 11.61875 10.4025 12.2375 11.125 12.875 C20.39882372 19.72956536 30.81873562 20.66627253 42 20 C48.30953571 18.89168598 53.43046664 16.33364005 58.921875 13.13671875 C72.91716007 5.48140304 96.96676646 7.41233629 111.88378906 11.36181641 C119.47214163 13.65022822 126.74163244 16.84394494 134 20 C134.84578613 20.36383789 135.69157227 20.72767578 136.56298828 21.10253906 C146.32794798 25.31251398 146.32794798 25.31251398 150.22265625 27.16210938 C151.79212902 27.90200368 153.39252113 28.57552699 154.99609375 29.23828125 C157 31 157 31 157.3828125 34.4921875 C157.31639082 35.95414228 157.22895588 37.41523399 157.125 38.875 C156.80663753 47.09484795 157.6144805 54.80838805 158.93408203 62.91748047 C159.64814587 67.33718668 160.17640305 71.50172214 160 76 C159.34 76 158.68 76 158 76 C158 76.66 158 77.32 158 78 C133.97701575 92.47310656 103.40283434 94.50348813 76.02099609 92.15576172 C74.15916421 92.01226707 72.29206385 91.9421355 70.42578125 91.87890625 C63.26540391 91.6044667 56.56471008 90.38070041 49.625 88.6875 C48.79234619 88.48672852 47.95969238 88.28595703 47.10180664 88.07910156 C41.64220693 86.6684088 36.96434199 84.67617976 32 82 C32 81.34 32 80.68 32 80 C31.34 80 30.68 80 30 80 C30.18359375 77.65234375 30.18359375 77.65234375 31 75 C47.92094418 63.93994151 76.24601079 61.59457533 96.04296875 60.51953125 C97.10748764 60.46039047 97.10748764 60.46039047 98.19351196 60.40005493 C101.74438046 60.2068788 105.29386367 60.03796778 108.84765625 59.90917969 C116.45288816 59.55245098 122.32958798 58.7200559 129 55 C129.9075 54.62875 130.815 54.2575 131.75 53.875 C137.81254114 48.82288238 139.67699975 40.4569105 141 33 C139.7625 32.62875 138.525 32.2575 137.25 31.875 C133.37459136 30.58926192 129.82210105 28.98300422 126.1875 27.125 C104.97584998 16.35888544 80.47827565 11.71373213 56.9765625 17.953125 C54.47172866 19.27979589 54.07424246 20.41804883 53 23 C52.05329569 24.34161526 51.09406198 25.67444372 50.125 27 C43.61630042 36.7471745 42.18349315 47.60109227 41 59 C41.79664063 58.79503906 42.59328125 58.59007812 43.4140625 58.37890625 C44.47367187 58.10949219 45.53328125 57.84007812 46.625 57.5625 C47.66914063 57.29566406 48.71328125 57.02882813 49.7890625 56.75390625 C55.59044202 55.39178186 61.07085535 54.85923835 67.0234375 54.90234375 C67.76961334 54.9037587 68.51578918 54.90517365 69.28457642 54.90663147 C71.64809318 54.91219126 74.01151227 54.92473611 76.375 54.9375 C77.98567571 54.9425202 79.59635291 54.9470822 81.20703125 54.95117188 C85.13805799 54.96214749 89.06901248 54.97938404 93 55 C93 55.66 93 56.32 93 57 C89.26008131 57.84872694 85.7024199 58.15110278 81.875 58.3125 C66.23782093 59.37681062 49.22060585 62.9607524 35.3125 70.375 C31.82095893 72.08783147 31.41865717 72.14700044 28 71 C29 60 30 49 31 38 C30.21254395 38.23058105 29.42508789 38.46116211 28.61376953 38.69873047 C14.15211758 42.83531246 0.80500252 41.64781734 -12.50390625 34.578125 C-18.08351419 31.05048555 -24.73641611 26.69610758 -26.5 20 C-26.665 19.01 -26.83 18.02 -27 17 C-27.66 16.67 -28.32 16.34 -29 16 C-29.40729228 13.67843403 -29.74438677 11.3431213 -30 9 C-29.06542969 9.27714844 -28.13085938 9.55429687 -27.16796875 9.83984375 C-16.42604386 12.85754945 -6.13110126 13.75801954 5 14 C4.45859375 12.86111328 4.45859375 12.86111328 3.90625 11.69921875 C3.4421875 10.70535156 2.978125 9.71148437 2.5 8.6875 C2.0359375 7.70136719 1.571875 6.71523438 1.09375 5.69921875 C0 3 0 3 0 0 Z " fill="#F62F2D" transform="translate(158,260)"/>
<path d="M0 0 C0.92095459 0.00563965 1.84190918 0.0112793 2.79077148 0.01708984 C22.20652376 0.36109317 37.47905625 8.34571982 50.890625 22.1328125 C55.24868777 27.24163398 58.71539171 32.61727624 59.75 39.3125 C60.74 39.6425 61.73 39.9725 62.75 40.3125 C61.1 40.3125 59.45 40.3125 57.75 40.3125 C57.48445312 39.67441406 57.21890625 39.03632813 56.9453125 38.37890625 C56.59210938 37.55261719 56.23890625 36.72632813 55.875 35.875 C55.52695312 35.05128906 55.17890625 34.22757813 54.8203125 33.37890625 C53.9255063 31.15503285 53.9255063 31.15503285 51.75 30.3125 C51.42 31.3025 51.09 32.2925 50.75 33.3125 C50.0293335 33.33231934 49.30866699 33.35213867 48.56616211 33.37255859 C45.27293328 33.4683366 41.98029332 33.57780117 38.6875 33.6875 C37.55376953 33.7184375 36.42003906 33.749375 35.25195312 33.78125 C29.4149918 33.98545856 24.31776466 34.40738535 18.75 36.3125 C17.32937768 36.70468702 15.90596578 37.08685643 14.48046875 37.4609375 C6.35722167 39.6452061 -1.53886241 41.90352218 -9.25 45.3125 C-10.425625 45.786875 -11.60125 46.26125 -12.8125 46.75 C-25.79667095 52.65189588 -36.46616014 61.5568449 -47.11230469 70.90869141 C-51.03721753 74.3125 -51.03721753 74.3125 -53.25 74.3125 C-53.45625 74.869375 -53.6625 75.42625 -53.875 76 C-56.26151423 80.01368303 -59.9286915 82.52600684 -63.875 84.875 C-66.30917604 86.20272617 -66.30917604 86.20272617 -68.0546875 88.234375 C-70.49186172 90.54145095 -72.68251159 91.66429419 -75.75 93 C-76.6884375 93.41636719 -77.626875 93.83273438 -78.59375 94.26171875 C-82.45666699 95.78984327 -85.71948703 96.43939056 -89.875 96.4453125 C-91.18210937 96.44724609 -91.18210937 96.44724609 -92.515625 96.44921875 C-93.41796875 96.44535156 -94.3203125 96.44148438 -95.25 96.4375 C-96.15234375 96.44136719 -97.0546875 96.44523437 -97.984375 96.44921875 C-98.85578125 96.44792969 -99.7271875 96.44664062 -100.625 96.4453125 C-101.41648438 96.44418457 -102.20796875 96.44305664 -103.0234375 96.44189453 C-105.25 96.3125 -105.25 96.3125 -109.25 95.3125 C-109.25 100.9225 -109.25 106.5325 -109.25 112.3125 C-114.04503106 109.91498447 -114.04503106 109.91498447 -115.25 106.3125 C-115.4453125 103.296875 -115.4453125 103.296875 -115.375 100.0625 C-115.35695312 98.98484375 -115.33890625 97.9071875 -115.3203125 96.796875 C-115.29710937 95.97703125 -115.27390625 95.1571875 -115.25 94.3125 C-114.92 94.3125 -114.59 94.3125 -114.25 94.3125 C-114.05083984 95.59447266 -114.05083984 95.59447266 -113.84765625 96.90234375 C-113.67105469 98.00707031 -113.49445313 99.11179687 -113.3125 100.25 C-113.05146484 101.90322266 -113.05146484 101.90322266 -112.78515625 103.58984375 C-112.53154864 106.21676929 -112.53154864 106.21676929 -111.25 107.3125 C-111.22421875 106.45269531 -111.1984375 105.59289062 -111.171875 104.70703125 C-110.47614602 90.20740685 -106.82422158 80.00462033 -98.25 68.3125 C-97.26 66.8275 -97.26 66.8275 -96.25 65.3125 C-97.36375 65.9725 -98.4775 66.6325 -99.625 67.3125 C-103 69.3125 -103 69.3125 -105.25 69.3125 C-105.25 69.9725 -105.25 70.6325 -105.25 71.3125 C-105.91 71.3125 -106.57 71.3125 -107.25 71.3125 C-107.518125 72.034375 -107.78625 72.75625 -108.0625 73.5 C-109.25 76.3125 -109.25 76.3125 -110.75 78.5 C-112.91679431 82.56273934 -113.50524536 86.80016309 -114.25 91.3125 C-115.953125 91.99609375 -115.953125 91.99609375 -118.25 92.3125 C-120.609375 91.09765625 -120.609375 91.09765625 -123 89.375 C-123.79921875 88.80910156 -124.5984375 88.24320312 -125.421875 87.66015625 C-126.02515625 87.21542969 -126.6284375 86.77070313 -127.25 86.3125 C-129.23598493 92.27045479 -129.82045059 98.06142565 -130.25 104.3125 C-130.58 104.3125 -130.91 104.3125 -131.25 104.3125 C-131.68915873 88.5271836 -129.18927345 75.28949109 -118.25 63.3125 C-108.59120541 53.36645501 -97.65509847 48.31027715 -83.8125 47.625 C-82.74418945 47.55442383 -82.74418945 47.55442383 -81.65429688 47.48242188 C-76.71773188 47.20891555 -72.13938035 47.57936856 -67.25 48.3125 C-66.7653125 47.27351563 -66.280625 46.23453125 -65.78125 45.1640625 C-61.75777354 36.72074292 -57.61147165 29.26995473 -51.25 22.3125 C-50.70988281 21.69246094 -50.16976562 21.07242188 -49.61328125 20.43359375 C-36.83603543 6.60446813 -18.52525216 -0.11937473 0 0 Z M-36.25 26.3125 C-36.25 26.9725 -36.25 27.6325 -36.25 28.3125 C-36.91 28.3125 -37.57 28.3125 -38.25 28.3125 C-39.24 30.7875 -39.24 30.7875 -40.25 33.3125 C-36.2829744 31.8257854 -32.6651143 29.9436661 -28.9375 27.9375 C-14.54982668 20.60947483 -0.13736785 19.58130611 15.75 19.3125 C14.31065858 16.43381717 12.62431323 16.26725276 9.625 15.1875 C-6.48073255 10.15564983 -24.35680246 13.8069156 -36.25 26.3125 Z " fill="#FCBA35" transform="translate(253.25,154.6875)"/>
<path d="M0 0 C0.99 0.33 1.98 0.66 3 1 C3.33 1.99 3.66 2.98 4 4 C1.36 4 -1.28 4 -4 4 C-4.37125 5.11375 -4.37125 5.11375 -4.75 6.25 C-6.10465039 9.23023087 -7.5101541 10.89919252 -10 13 C-10.66 13 -11.32 13 -12 13 C-12.33 14.32 -12.66 15.64 -13 17 C-13.66 17 -14.32 17 -15 17 C-15 17.66 -15 18.32 -15 19 C-15.66 19 -16.32 19 -17 19 C-17 19.66 -17 20.32 -17 21 C-17.66 21 -18.32 21 -19 21 C-19 21.66 -19 22.32 -19 23 C-22.46153846 26 -22.46153846 26 -25 26 C-25.33 26.99 -25.66 27.98 -26 29 C-27.80664063 30.30273438 -27.80664063 30.30273438 -30.15625 31.59375 C-31.01476562 32.06683594 -31.87328125 32.53992188 -32.7578125 33.02734375 C-33.66273438 33.51332031 -34.56765625 33.99929687 -35.5 34.5 C-36.37398437 34.98597656 -37.24796875 35.47195312 -38.1484375 35.97265625 C-43.0269395 38.62905126 -47.77746011 40.74724615 -53.08349609 42.38671875 C-55.38167813 43.122137 -57.44018531 44.10628582 -59.5625 45.25 C-63.26551125 47.17648872 -67.00705836 48.87539655 -70.85009766 50.49462891 C-77.57845442 53.33234288 -83.65953291 56.39708925 -89.66796875 60.6171875 C-92.14667824 62.08697504 -94.16279574 62.60692374 -97 63 C-97 63.99 -97 64.98 -97 66 C-102.25714286 70 -102.25714286 70 -105 70 C-105 70.66 -105 71.32 -105 72 C-110.41176471 76 -110.41176471 76 -113 76 C-113 76.66 -113 77.32 -113 78 C-120.23507868 82.57443684 -126.50521244 86.14724916 -135.3203125 85.64453125 C-139.58881404 84.61785085 -142.2105463 82.30019874 -145 79 C-144.690625 79.9075 -144.38125 80.815 -144.0625 81.75 C-143.27169247 84.16894068 -142.59553894 86.53200079 -142 89 C-154.1152115 89.46948075 -164.4441089 88.86923708 -176 85 C-175.34820749 88.81583379 -174.53101025 91.02881405 -172 94 C-172.99 94.99 -172.99 94.99 -174 96 C-179.52318138 87.79163558 -182.24756377 81.37775839 -182.3125 71.5 C-182.31805908 70.78787354 -182.32361816 70.07574707 -182.3293457 69.34204102 C-182.26134025 64.28696916 -181.37481734 59.86389561 -180 55 C-179.39671875 55.33773437 -178.7934375 55.67546875 -178.171875 56.0234375 C-176.97304687 56.69246094 -176.97304687 56.69246094 -175.75 57.375 C-174.96109375 57.81585938 -174.1721875 58.25671875 -173.359375 58.7109375 C-171.07886138 60.05112755 -171.07886138 60.05112755 -168.7421875 60.734375 C-167 62 -167 62 -166.4609375 65.1171875 C-166.43257812 66.35726562 -166.40421875 67.59734375 -166.375 68.875 C-166.33443306 74.76055057 -166.33443306 74.76055057 -164 80 C-163.34 80.33 -162.68 80.66 -162 81 C-161.67 75.72 -161.34 70.44 -161 65 C-158.59267578 65.06960937 -158.59267578 65.06960937 -156.13671875 65.140625 C-153.98699795 65.17817471 -151.8372568 65.2145714 -149.6875 65.25 C-148.63498047 65.28351563 -147.58246094 65.31703125 -146.49804688 65.3515625 C-137.89301352 65.4574706 -130.71232427 63.86684579 -123.3112793 59.36425781 C-121 58 -121 58 -119 58 C-118.67 57.01 -118.34 56.02 -118 55 C-113.66666667 52 -113.66666667 52 -111 52 C-110.73832031 51.40316406 -110.47664063 50.80632812 -110.20703125 50.19140625 C-108.92132852 47.85716926 -107.72102904 46.6400907 -105.6875 44.9375 C-104.9759375 44.33679688 -104.264375 43.73609375 -103.53125 43.1171875 C-102.6959375 42.41851562 -101.860625 41.71984375 -101 41 C-99.98840092 40.12897553 -98.97805603 39.25649303 -97.96875 38.3828125 C-86.56307798 28.549269 -75.07178 19.67808667 -61 14 C-60.33226562 13.70480469 -59.66453125 13.40960938 -58.9765625 13.10546875 C-51.24458078 9.79364723 -43.17241603 7.69748141 -35.0534668 5.56689453 C-33.26868884 5.07417614 -31.50963981 4.49004543 -29.7578125 3.890625 C-24.22387192 2.57904657 -18.7319719 2.52970986 -13.0625 2.375 C-11.32129883 2.31699219 -11.32129883 2.31699219 -9.54492188 2.2578125 C-6.69676831 2.16404613 -3.84861262 2.07834083 -1 2 C-0.67 1.34 -0.34 0.68 0 0 Z " fill="#FD9331" transform="translate(305,185)"/>
<path d="M0 0 C0.33 0 0.66 0 1 0 C1.0501123 0.68924561 1.10022461 1.37849121 1.15185547 2.08862305 C2.28996733 18.83938105 2.28996733 18.83938105 4.6328125 35.44921875 C5.04697413 38.32632026 5.05950143 41.09718039 5 44 C4.34 44 3.68 44 3 44 C3 44.66 3 45.32 3 46 C-21.02298425 60.47310656 -51.59716566 62.50348813 -78.97900391 60.15576172 C-80.84083579 60.01226707 -82.70793615 59.9421355 -84.57421875 59.87890625 C-91.73459609 59.6044667 -98.43528992 58.38070041 -105.375 56.6875 C-106.20765381 56.48672852 -107.04030762 56.28595703 -107.89819336 56.07910156 C-113.35779307 54.6684088 -118.03565801 52.67617976 -123 50 C-123 49.34 -123 48.68 -123 48 C-123.66 48 -124.32 48 -125 48 C-124.81640625 45.65234375 -124.81640625 45.65234375 -124 43 C-113.88309033 36.38727133 -98.61893174 34.58241566 -87 32 C-86.19804199 31.81630859 -85.39608398 31.63261719 -84.56982422 31.44335938 C-59.74401902 25.98570481 -28.16771378 25.94409541 -4 34 C-4.04640625 32.88625 -4.0928125 31.7725 -4.140625 30.625 C-4.4471013 19.76185171 -3.16881709 10.38353456 0 0 Z " fill="#DB1D31" transform="translate(313,292)"/>
<path d="M0 0 C0.92095459 0.00563965 1.84190918 0.0112793 2.79077148 0.01708984 C19.17642868 0.30740672 32.29773732 5.68405357 44.75 16.3125 C44.09 16.6425 43.43 16.9725 42.75 17.3125 C36.04411765 13.90073529 36.04411765 13.90073529 34.75 11.3125 C33.10636866 10.59090576 31.43949614 9.91898579 29.75 9.3125 C29.75 8.6525 29.75 7.9925 29.75 7.3125 C23.16821177 6.99629309 18.58006252 6.96331515 12.75 10.3125 C7.00940411 12.63711393 1.74187984 13.43755019 -4.4375 13.625 C-15.95613012 14.20851723 -25.95539391 18.21079173 -34.25 26.3125 C-34.91 26.3125 -35.57 26.3125 -36.25 26.3125 C-36.25 26.9725 -36.25 27.6325 -36.25 28.3125 C-36.91 28.3125 -37.57 28.3125 -38.25 28.3125 C-38.91 29.9625 -39.57 31.6125 -40.25 33.3125 C-39.41339844 32.79300781 -38.57679688 32.27351563 -37.71484375 31.73828125 C-25.92830262 24.60783455 -13.45687113 19.13934478 0.5859375 19.21484375 C1.64941406 19.21806641 2.71289062 19.22128906 3.80859375 19.22460938 C5.45021484 19.23717773 5.45021484 19.23717773 7.125 19.25 C8.24261719 19.25451172 9.36023438 19.25902344 10.51171875 19.26367188 C13.25786804 19.27540756 16.00390586 19.29182637 18.75 19.3125 C19.08 19.9725 19.41 20.6325 19.75 21.3125 C18.99380371 21.33231934 18.23760742 21.35213867 17.45849609 21.37255859 C14.01366282 21.46814572 10.56940799 21.57768891 7.125 21.6875 C5.93519531 21.7184375 4.74539063 21.749375 3.51953125 21.78125 C2.36582031 21.81992188 1.21210938 21.85859375 0.0234375 21.8984375 C-1.56331787 21.94556885 -1.56331787 21.94556885 -3.18212891 21.99365234 C-6.445824 22.33285223 -9.16461541 23.22567071 -12.25 24.3125 C-15.125 24.4375 -15.125 24.4375 -17.25 24.3125 C-17.25 24.9725 -17.25 25.6325 -17.25 26.3125 C-17.91 26.3125 -18.57 26.3125 -19.25 26.3125 C-19.25 26.9725 -19.25 27.6325 -19.25 28.3125 C-20.67578125 29.6015625 -20.67578125 29.6015625 -22.5625 30.9375 C-23.17738281 31.38351563 -23.79226562 31.82953125 -24.42578125 32.2890625 C-26.25 33.3125 -26.25 33.3125 -29.25 33.3125 C-29.476875 33.88613281 -29.70375 34.45976562 -29.9375 35.05078125 C-31.61282808 37.93773053 -33.62004834 39.449086 -36.25 41.5 C-44.00644082 47.69296976 -51.4411108 53.92455991 -57.6796875 61.68359375 C-59.39885708 63.46691145 -61.03371536 64.25314382 -63.25 65.3125 C-63.93486725 66.63657669 -64.59870203 67.97159241 -65.25 69.3125 C-66.87746694 71.01746537 -68.53891311 72.69147032 -70.25 74.3125 C-73.00774601 68.79700798 -71.45879162 61.27529682 -69.75 55.625 C-69.26534507 54.18225406 -68.77112032 52.74247897 -68.25 51.3125 C-68.91 51.3125 -69.57 51.3125 -70.25 51.3125 C-70.25 50.6525 -70.25 49.9925 -70.25 49.3125 C-73.8992306 49.47633746 -77.54226491 49.70174959 -81.1875 49.9375 C-82.20908203 49.98261719 -83.23066406 50.02773437 -84.28320312 50.07421875 C-91.79297306 50.602062 -96.42621253 52.58684195 -102.25 57.3125 C-103.260625 58.09625 -104.27125 58.88 -105.3125 59.6875 C-105.951875 60.22375 -106.59125 60.76 -107.25 61.3125 C-106.59 61.9725 -105.93 62.6325 -105.25 63.3125 C-104.26 62.8175 -104.26 62.8175 -103.25 62.3125 C-103.25 62.9725 -103.25 63.6325 -103.25 64.3125 C-102.26 64.3125 -101.27 64.3125 -100.25 64.3125 C-99.92 63.3225 -99.59 62.3325 -99.25 61.3125 C-96.61 60.9825 -93.97 60.6525 -91.25 60.3125 C-92.125 67.0625 -92.125 67.0625 -93.25 69.3125 C-94.57 69.3125 -95.89 69.3125 -97.25 69.3125 C-97.25 69.9725 -97.25 70.6325 -97.25 71.3125 C-97.91 71.3125 -98.57 71.3125 -99.25 71.3125 C-98.25 69.3125 -97.25 67.3125 -96.25 65.3125 C-97.36375 65.9725 -98.4775 66.6325 -99.625 67.3125 C-103 69.3125 -103 69.3125 -105.25 69.3125 C-105.25 69.9725 -105.25 70.6325 -105.25 71.3125 C-105.91 71.3125 -106.57 71.3125 -107.25 71.3125 C-107.518125 72.034375 -107.78625 72.75625 -108.0625 73.5 C-109.25 76.3125 -109.25 76.3125 -110.75 78.5 C-112.91679431 82.56273934 -113.50524536 86.80016309 -114.25 91.3125 C-115.953125 91.99609375 -115.953125 91.99609375 -118.25 92.3125 C-120.609375 91.09765625 -120.609375 91.09765625 -123 89.375 C-123.79921875 88.80910156 -124.5984375 88.24320312 -125.421875 87.66015625 C-126.02515625 87.21542969 -126.6284375 86.77070313 -127.25 86.3125 C-129.23598493 92.27045479 -129.82045059 98.06142565 -130.25 104.3125 C-130.58 104.3125 -130.91 104.3125 -131.25 104.3125 C-131.68915873 88.5271836 -129.18927345 75.28949109 -118.25 63.3125 C-108.59120541 53.36645501 -97.65509847 48.31027715 -83.8125 47.625 C-82.74418945 47.55442383 -82.74418945 47.55442383 -81.65429688 47.48242188 C-76.71773188 47.20891555 -72.13938035 47.57936856 -67.25 48.3125 C-66.7653125 47.27351563 -66.280625 46.23453125 -65.78125 45.1640625 C-61.75777354 36.72074292 -57.61147165 29.26995473 -51.25 22.3125 C-50.70988281 21.69246094 -50.16976562 21.07242188 -49.61328125 20.43359375 C-36.83603543 6.60446813 -18.52525216 -0.11937473 0 0 Z " fill="#FCC930" transform="translate(253.25,154.6875)"/>
<path d="M0 0 C2.06475583 0.0031427 4.12804884 -0.02031752 6.19262695 -0.0456543 C14.46491272 -0.08380667 21.92149671 0.81601542 30.01953125 2.60546875 C34.42265754 3.5311531 38.7218073 3.94964987 43.21020508 4.12817383 C44.455802 4.18497314 44.455802 4.18497314 45.7265625 4.24291992 C54.39805317 4.52712337 62.83086259 3.56269178 71.39770508 2.31567383 C72.73489689 2.12523392 74.07213371 1.93510969 75.40942383 1.74536133 C76.39555664 1.60356445 77.38168945 1.46176758 78.39770508 1.31567383 C78.06770508 1.97567383 77.73770508 2.63567383 77.39770508 3.31567383 C65.00047428 7.05370469 52.20296471 6.66094839 39.39770508 6.31567383 C39.39770508 6.97567383 39.39770508 7.63567383 39.39770508 8.31567383 C38.73770508 8.31567383 38.07770508 8.31567383 37.39770508 8.31567383 C37.39770508 8.97567383 37.39770508 9.63567383 37.39770508 10.31567383 C29.54909604 15.07686173 22.35630427 19.0494068 13.39770508 21.31567383 C11.1873172 22.07468474 8.98966674 22.86092112 6.79614258 23.66723633 C0.24454985 25.43851384 -6.36887284 25.44945598 -13.10229492 25.37817383 C-14.33592773 25.37140625 -14.33592773 25.37140625 -15.59448242 25.36450195 C-17.59711888 25.35285872 -19.59971719 25.33492938 -21.60229492 25.31567383 C-20.81209961 24.52805664 -20.0219043 23.74043945 -19.20776367 22.92895508 C-17.7566473 21.47348754 -16.31529227 20.00741173 -14.91479492 18.50317383 C-13.60229492 17.31567383 -13.60229492 17.31567383 -11.60229492 17.31567383 C-11.60229492 16.32567383 -11.60229492 15.33567383 -11.60229492 14.31567383 C-10.94229492 14.31567383 -10.28229492 14.31567383 -9.60229492 14.31567383 C-9.60229492 13.32567383 -9.60229492 12.33567383 -9.60229492 11.31567383 C-10.22104492 11.81067383 -10.83979492 12.30567383 -11.47729492 12.81567383 C-13.60229492 14.31567383 -13.60229492 14.31567383 -15.60229492 14.31567383 C-15.8575293 14.90735352 -16.11276367 15.4990332 -16.37573242 16.10864258 C-21.78690683 25.84530991 -35.97426248 29.93779806 -45.87963867 33.49145508 C-50.96115756 34.61653429 -55.85009309 34.68399897 -61.03979492 34.69067383 C-62.03817383 34.71516602 -63.03655273 34.7396582 -64.06518555 34.76489258 C-70.70886901 34.7911004 -74.90193138 33.75355696 -80.60229492 30.31567383 C-80.60229492 29.98567383 -80.60229492 29.65567383 -80.60229492 29.31567383 C-79.34416992 29.27442383 -78.08604492 29.23317383 -76.78979492 29.19067383 C-71.41400289 28.63602862 -67.47081205 26.33271993 -62.88745117 23.59301758 C-60.60229492 22.31567383 -60.60229492 22.31567383 -58.60229492 22.31567383 C-58.60229492 21.65567383 -58.60229492 20.99567383 -58.60229492 20.31567383 C-53.19053022 16.31567383 -53.19053022 16.31567383 -50.60229492 16.31567383 C-50.60229492 15.65567383 -50.60229492 14.99567383 -50.60229492 14.31567383 C-44.27653708 9.51303772 -37.07883139 6.76426924 -29.60229492 4.31567383 C-28.59166992 3.94442383 -27.58104492 3.57317383 -26.53979492 3.19067383 C-17.71568122 0.56221443 -9.1762135 -0.02906931 0 0 Z " fill="#FC4331" transform="translate(250.602294921875,240.684326171875)"/>
<path d="M0 0 C0.84578613 0.36383789 1.69157227 0.72767578 2.56298828 1.10253906 C19.14803999 8.25286573 19.14803999 8.25286573 23 11 C23.3125 13.6875 23.3125 13.6875 23 16 C22.01 15.01 22.01 15.01 21 14 C18.26138672 24.71331736 17.36201685 34.98969453 17 46 C13.58284122 45.52430071 10.16636893 45.04383638 6.75 44.5625 C5.78191406 44.42779297 4.81382812 44.29308594 3.81640625 44.15429688 C2.88183594 44.02216797 1.94726562 43.89003906 0.984375 43.75390625 C-0.30388184 43.57323608 -0.30388184 43.57323608 -1.61816406 43.38891602 C-4 43 -4 43 -5.93164062 42.47265625 C-8.6582989 41.8495672 -11.28349816 41.77948781 -14.078125 41.68359375 C-15.23828125 41.64169922 -16.3984375 41.59980469 -17.59375 41.55664062 C-19.40359375 41.49766602 -19.40359375 41.49766602 -21.25 41.4375 C-22.47203125 41.39431641 -23.6940625 41.35113281 -24.953125 41.30664062 C-27.9686392 41.20062645 -30.98423448 41.09856064 -34 41 C-34 40.67 -34 40.34 -34 40 C-33.44127197 39.9906543 -32.88254395 39.98130859 -32.30688477 39.97167969 C-29.72459677 39.91731012 -27.14399402 39.83380291 -24.5625 39.75 C-23.68400391 39.73582031 -22.80550781 39.72164063 -21.90039062 39.70703125 C-15.45196423 39.46908194 -10.71063605 37.93339751 -5 35 C-4.0925 34.62875 -3.185 34.2575 -2.25 33.875 C3.81254114 28.82288238 5.67699975 20.4569105 7 13 C5.14375 12.443125 5.14375 12.443125 3.25 11.875 C-0.62540864 10.58926192 -4.17789895 8.98300422 -7.8125 7.125 C-29.02415002 -3.64111456 -53.52172435 -8.28626787 -77.0234375 -2.046875 C-79.52827134 -0.72020411 -79.92575754 0.41804883 -81 3 C-81.94670431 4.34161526 -82.90593802 5.67444372 -83.875 7 C-90.58159225 17.05988838 -91.86756967 28.2584855 -93 40 C-95.475 40.495 -95.475 40.495 -98 41 C-98.04487549 40.4423999 -98.08975098 39.8847998 -98.13598633 39.31030273 C-99.0110694 28.70141893 -100.07351965 18.32699444 -102.4140625 7.93359375 C-103 5 -103 5 -103 1 C-102.03320312 0.90203125 -101.06640625 0.8040625 -100.0703125 0.703125 C-91.0327033 -0.33485784 -83.22196673 -1.84253175 -75.3125 -6.625 C-53.71556375 -19.46642155 -20.78381029 -9.0371353 0 0 Z " fill="#C1B1B5" transform="translate(292,280)"/>
<path d="M0 0 C0.99 0.495 0.99 0.495 2 1 C-1.19990508 3.74277578 -4.00499382 5.6302836 -8 7 C-8 7.66 -8 8.32 -8 9 C-9.98 9.66 -11.96 10.32 -14 11 C-14 11.66 -14 12.32 -14 13 C-16.97 13.66 -19.94 14.32 -23 15 C-23 15.66 -23 16.32 -23 17 C-17.39895236 17.95240486 -11.98829602 18.15522486 -6.3125 18.125 C-5.43561523 18.12306641 -4.55873047 18.12113281 -3.65527344 18.11914062 C2.93134808 18.07547242 9.45215246 17.74528346 16 17 C9.01334189 21.65777207 2.21829133 22.85294784 -6 24 C-0.87674471 26.45489316 3.33895411 27.50341703 9 28 C9 28.66 9 29.32 9 30 C16.11699277 31.12421 23.05841249 31.2209137 30.25 31.25 C32.13912109 31.2809375 32.13912109 31.2809375 34.06640625 31.3125 C44.33912363 31.35516965 52.90429487 29.89768738 62 25 C62.66 25 63.32 25 64 25 C64 24.34 64 23.68 64 23 C65.72265625 21.73828125 65.72265625 21.73828125 68.0625 20.3125 C72.65311072 17.37073205 76.31894171 14.0006357 80 10 C80.99 10.33 81.98 10.66 83 11 C83 12.65 83 14.3 83 16 C82.34 16 81.68 16 81 16 C81 16.66 81 17.32 81 18 C80.34 18 79.68 18 79 18 C79 18.99 79 19.98 79 21 C78.34 21 77.68 21 77 21 C77 21.99 77 22.98 77 24 C76.34 24 75.68 24 75 24 C74.91234375 24.7528125 74.8246875 25.505625 74.734375 26.28125 C73.39493493 31.24002814 69.22384667 33.43049328 65 36 C56.71120894 39.81206193 49.25856866 42.14498593 40.125 42.125 C38.36542969 42.12886719 38.36542969 42.12886719 36.5703125 42.1328125 C30.64552917 41.91241575 25.82813213 41.20411607 20.5 38.5625 C14.1542188 35.52595894 7.75545147 32.63747848 1.3125 29.8125 C0.35085938 29.38461182 -0.61078125 28.95672363 -1.6015625 28.51586914 C-21.48451067 19.81367003 -45.89330341 15.88440961 -67.0625 22.66015625 C-69.42567609 23.62547148 -71.65892327 24.81971659 -73.9140625 26.01171875 C-84.40388681 31.45913717 -95.8070547 32.95441107 -107.375 29.8125 C-114.07684579 27.47950935 -119.60723768 23.55014321 -125 19 C-124.67 18.34 -124.34 17.68 -124 17 C-123.25621094 17.5053125 -122.51242188 18.010625 -121.74609375 18.53125 C-109.73412238 25.67886933 -96.04082596 26.34761117 -82.50390625 23.03515625 C-70.94115429 19.65568754 -60.36748869 13.41439468 -51.87890625 4.86328125 C-50.00994599 3.00986328 -48.40241561 2.02960669 -46 1 C-46.33 2.32 -46.66 3.64 -47 5 C-47.66 5 -48.32 5 -49 5 C-49 5.99 -49 6.98 -49 8 C-50.75 9.82421875 -50.75 9.82421875 -53 11.6875 C-53.7425 12.31011719 -54.485 12.93273437 -55.25 13.57421875 C-55.8275 14.04472656 -56.405 14.51523437 -57 15 C-43.37613531 15.48915472 -30.61888924 14.7050352 -18 9 C-16.35600717 8.37017469 -14.71035198 7.74465815 -13.0625 7.125 C-8.87005693 5.48002616 -5.28011715 3.43139334 -1.59375 0.85546875 C-1.0678125 0.57316406 -0.541875 0.29085937 0 0 Z " fill="#D41225" transform="translate(288,250)"/>
<path d="M0 0 C0.71448303 0.00086609 1.42896606 0.00173218 2.1651001 0.00262451 C14.18349024 0.04033008 14.18349024 0.04033008 17.8125 1.25 C19.7896511 1.40362037 21.76945476 1.52417224 23.75 1.625 C30.35314475 2.07757509 36.46296734 3.4309447 42.8125 5.25 C42.4825 5.91 42.1525 6.57 41.8125 7.25 C41.0911084 7.26458252 40.3697168 7.27916504 39.62646484 7.29418945 C25.26079186 7.61405456 10.98940876 8.2357076 -3.3125 9.625 C-5.14868896 9.7957605 -5.14868896 9.7957605 -7.02197266 9.9699707 C-13.50885483 10.63901132 -19.55456452 11.69044713 -25.78076172 13.65087891 C-28.33601368 14.28697023 -30.56484086 14.3546258 -33.1875 14.25 C-33.1875 14.91 -33.1875 15.57 -33.1875 16.25 C-33.7222998 16.39622803 -34.25709961 16.54245605 -34.80810547 16.69311523 C-37.22683339 17.35575521 -39.64467096 18.02158806 -42.0625 18.6875 C-42.90425781 18.91759766 -43.74601562 19.14769531 -44.61328125 19.38476562 C-45.41894531 19.60712891 -46.22460938 19.82949219 -47.0546875 20.05859375 C-47.79831543 20.26282959 -48.54194336 20.46706543 -49.30810547 20.67749023 C-51.2511295 21.21216267 -51.2511295 21.21216267 -53.1875 22.25 C-60.57617752 22.92762122 -68.42616696 22.53441978 -75.1875 19.25 C-76.875 16.0625 -76.875 16.0625 -77.1875 13.25 C-71.54129827 10.60068783 -65.94569663 9.0689866 -59.875 7.6875 C-58.98876953 7.47931641 -58.10253906 7.27113281 -57.18945312 7.05664062 C-38.15950395 2.62881146 -19.5526556 -0.04552359 0 0 Z " fill="#C31324" transform="translate(273.1875,326.75)"/>
<path d="M0 0 C0.33 0 0.66 0 1 0 C1.0501123 0.68924561 1.10022461 1.37849121 1.15185547 2.08862305 C2.28996733 18.83938105 2.28996733 18.83938105 4.6328125 35.44921875 C5.04697413 38.32632026 5.05950143 41.09718039 5 44 C4.01 44.33 3.02 44.66 2 45 C2 43.68 2 42.36 2 41 C-5.10612174 38.73572474 -11.79888387 37.58707557 -19.25 37.2109375 C-22 37 -22 37 -25 36 C-51.92596536 34.29909167 -79.27636196 36.74062649 -105 45 C-107.78117033 45.74762643 -110.56263693 46.49341211 -113.34765625 47.2265625 C-114.16556641 47.60941406 -114.16556641 47.60941406 -115 48 C-115.33 48.99 -115.66 49.98 -116 51 C-115.01 51.33 -114.02 51.66 -113 52 C-114.625 52.6875 -114.625 52.6875 -117 53 C-120.25 51.5625 -120.25 51.5625 -123 50 C-123 49.34 -123 48.68 -123 48 C-123.66 48 -124.32 48 -125 48 C-124.81640625 45.65234375 -124.81640625 45.65234375 -124 43 C-113.88309033 36.38727133 -98.61893174 34.58241566 -87 32 C-86.19804199 31.81630859 -85.39608398 31.63261719 -84.56982422 31.44335938 C-59.74401902 25.98570481 -28.16771378 25.94409541 -4 34 C-4.04640625 32.88625 -4.0928125 31.7725 -4.140625 30.625 C-4.4471013 19.76185171 -3.16881709 10.38353456 0 0 Z " fill="#F93D34" transform="translate(313,292)"/>
<path d="M0 0 C1.32 0 2.64 0 4 0 C4.495 1.98 4.495 1.98 5 4 C5.66 3.01 6.32 2.02 7 1 C7.66 1 8.32 1 9 1 C9 2.65 9 4.3 9 6 C7.68 6.66 6.36 7.32 5 8 C5.495 9.98 5.495 9.98 6 12 C5.2575 12.24878906 4.515 12.49757813 3.75 12.75390625 C0.75540062 14.1108341 -0.78290956 15.53714201 -3 17.9375 C-5.80026297 20.84871679 -8.29663727 23.25724107 -12 25 C-12.66 25 -13.32 25 -14 25 C-14 25.66 -14 26.32 -14 27 C-15.47190305 27.80509102 -16.95307067 28.59324574 -18.4375 29.375 C-19.26121094 29.81585938 -20.08492188 30.25671875 -20.93359375 30.7109375 C-29.643028 34.37222833 -38.27916068 34.30664145 -47.625 34.25 C-49.55085938 34.26160156 -49.55085938 34.26160156 -51.515625 34.2734375 C-57.69731238 34.26063898 -63.18651939 34.19969537 -69 32 C-69 31.34 -69 30.68 -69 30 C-70.7015625 30.12375 -70.7015625 30.12375 -72.4375 30.25 C-77.56486617 30.28668956 -81.52078524 28.3225558 -86 26 C-86 25.67 -86 25.34 -86 25 C-84.62328125 24.85304688 -84.62328125 24.85304688 -83.21875 24.703125 C-75.93261452 23.81531858 -70.319625 22.74496296 -64 19 C-61.9765625 17.8125 -61.9765625 17.8125 -60 17 C-59.01 17.33 -58.02 17.66 -57 18 C-57.99 18.99 -58.98 19.98 -60 21 C-55.87403297 21.02492452 -51.74809578 21.04296521 -47.62207031 21.05493164 C-46.22167191 21.05992616 -44.82127863 21.06672408 -43.42089844 21.07543945 C-32.67268863 21.14293426 -32.67268863 21.14293426 -22 20 C-22 19.34 -22 18.68 -22 18 C-21.39414062 17.74347656 -20.78828125 17.48695313 -20.1640625 17.22265625 C-12.27600948 13.6184228 -3.47909677 8.33848737 0 0 Z " fill="#EE2232" transform="translate(366,248)"/>
<path d="M0 0 C3.88958595 4.51693852 3.88958595 4.51693852 4.5 7.1875 C4.83890051 9.2250619 4.83890051 9.2250619 7.0625 10.25 C8.0215625 10.62125 8.0215625 10.62125 9 11 C9 14 9 17 9 20 C10.32 20.66 11.64 21.32 13 22 C13 22.66 13 23.32 13 24 C13.66 24 14.32 24 15 24 C15 24.99 15 25.98 15 27 C13.25447527 27.84266711 11.5033792 28.67380038 9.75 29.5 C8.77546875 29.9640625 7.8009375 30.428125 6.796875 30.90625 C4 32 4 32 0 32 C0 32.66 0 33.32 0 34 C-1.485 34.495 -1.485 34.495 -3 35 C-3 35.66 -3 36.32 -3 37 C-1.0509375 37.185625 -1.0509375 37.185625 0.9375 37.375 C3.15234375 37.5859375 3.15234375 37.5859375 5 38 C5.33 38.66 5.66 39.32 6 40 C-5.652214 39.61159287 -14.70748149 34.14916683 -23.0703125 26.25390625 C-25.68863211 23.19566655 -26.34623549 20.92258705 -27 17 C-27.66 16.67 -28.32 16.34 -29 16 C-29.40729228 13.67843403 -29.74438677 11.3431213 -30 9 C-29.06542969 9.27714844 -28.13085938 9.55429687 -27.16796875 9.83984375 C-16.42604386 12.85754945 -6.13110126 13.75801954 5 14 C4.45859375 12.86111328 4.45859375 12.86111328 3.90625 11.69921875 C3.4421875 10.70535156 2.978125 9.71148437 2.5 8.6875 C2.0359375 7.70136719 1.571875 6.71523438 1.09375 5.69921875 C0 3 0 3 0 0 Z " fill="#FB4832" transform="translate(158,260)"/>
<path d="M0 0 C0.99 0.495 0.99 0.495 2 1 C-1.19990508 3.74277578 -4.00499382 5.6302836 -8 7 C-8 7.66 -8 8.32 -8 9 C-9.98 9.66 -11.96 10.32 -14 11 C-14 11.66 -14 12.32 -14 13 C-16.97 13.66 -19.94 14.32 -23 15 C-23 15.66 -23 16.32 -23 17 C-17.39895236 17.95240486 -11.98829602 18.15522486 -6.3125 18.125 C-5.43561523 18.12306641 -4.55873047 18.12113281 -3.65527344 18.11914062 C2.93134808 18.07547242 9.45215246 17.74528346 16 17 C7.06844693 22.95436872 -1.55674218 23.165766 -12 23 C-12 22.34 -12 21.68 -12 21 C-18.9862227 19.87309923 -25.85980927 19.81391531 -32.91308594 19.81469727 C-35.0985102 19.81252631 -37.28341574 19.79437424 -39.46875 19.77539062 C-51.56305829 19.72671137 -63.0429845 20.26557752 -73.9140625 26.01171875 C-84.40388681 31.45913717 -95.8070547 32.95441107 -107.375 29.8125 C-114.07684579 27.47950935 -119.60723768 23.55014321 -125 19 C-124.67 18.34 -124.34 17.68 -124 17 C-123.25621094 17.5053125 -122.51242188 18.010625 -121.74609375 18.53125 C-109.73412238 25.67886933 -96.04082596 26.34761117 -82.50390625 23.03515625 C-70.94115429 19.65568754 -60.36748869 13.41439468 -51.87890625 4.86328125 C-50.00994599 3.00986328 -48.40241561 2.02960669 -46 1 C-46.33 2.32 -46.66 3.64 -47 5 C-47.66 5 -48.32 5 -49 5 C-49 5.99 -49 6.98 -49 8 C-50.75 9.82421875 -50.75 9.82421875 -53 11.6875 C-53.7425 12.31011719 -54.485 12.93273437 -55.25 13.57421875 C-55.8275 14.04472656 -56.405 14.51523437 -57 15 C-43.37613531 15.48915472 -30.61888924 14.7050352 -18 9 C-16.35600717 8.37017469 -14.71035198 7.74465815 -13.0625 7.125 C-8.87005693 5.48002616 -5.28011715 3.43139334 -1.59375 0.85546875 C-1.0678125 0.57316406 -0.541875 0.29085937 0 0 Z " fill="#D01320" transform="translate(288,250)"/>
<path d="M0 0 C1.62566606 0.47690204 3.25051311 0.95659666 4.875 1.4375 C6.23238281 1.83775391 6.23238281 1.83775391 7.6171875 2.24609375 C10 3 10 3 12 4 C11.34 13.57 10.68 23.14 10 33 C6.6175 32.525625 3.235 32.05125 -0.25 31.5625 C-1.30993164 31.41498291 -2.36986328 31.26746582 -3.46191406 31.11547852 C-4.30463867 30.99615967 -5.14736328 30.87684082 -6.015625 30.75390625 C-6.87446289 30.63345947 -7.73330078 30.5130127 -8.61816406 30.38891602 C-11 30 -11 30 -12.93164062 29.47265625 C-15.6582989 28.8495672 -18.28349816 28.77948781 -21.078125 28.68359375 C-22.23828125 28.64169922 -23.3984375 28.59980469 -24.59375 28.55664062 C-25.8003125 28.51732422 -27.006875 28.47800781 -28.25 28.4375 C-30.08304687 28.37272461 -30.08304687 28.37272461 -31.953125 28.30664062 C-34.9686392 28.20062645 -37.98423448 28.09856064 -41 28 C-41 27.67 -41 27.34 -41 27 C-40.44127197 26.9906543 -39.88254395 26.98130859 -39.30688477 26.97167969 C-36.72459677 26.91731012 -34.14399402 26.83380291 -31.5625 26.75 C-30.68400391 26.73582031 -29.80550781 26.72164063 -28.90039062 26.70703125 C-22.45196423 26.46908194 -17.71063605 24.93339751 -12 22 C-11.0925 21.62875 -10.185 21.2575 -9.25 20.875 C-3.18745886 15.82288238 -1.32300025 7.4569105 0 0 Z " fill="#DADADC" transform="translate(299,293)"/>
<path d="M0 0 C-0.33 0.99 -0.66 1.98 -1 3 C1.31 3 3.62 3 6 3 C6 3.33 6 3.66 6 4 C4.91203125 4.03738281 3.8240625 4.07476562 2.703125 4.11328125 C-10.46890527 4.44404975 -10.46890527 4.44404975 -23 8 C-24.20256508 9.84758317 -24.20256508 9.84758317 -25 12 C-25.94670431 13.34161526 -26.90593802 14.67444372 -27.875 16 C-34.58159225 26.05988838 -35.86756967 37.2584855 -37 49 C-39.475 49.495 -39.475 49.495 -42 50 C-42.04487549 49.4423999 -42.08975098 48.8847998 -42.13598633 48.31030273 C-43.0110694 37.70141893 -44.07351965 27.32699444 -46.4140625 16.93359375 C-47 14 -47 14 -47 10 C-46.03320312 9.90203125 -45.06640625 9.8040625 -44.0703125 9.703125 C-35.23684619 8.68858828 -27.18198034 7.4265212 -19.6015625 2.4140625 C-16.58614707 0.77505291 -14.41060719 0.50826189 -11 0.3125 C-9.989375 0.24675781 -8.97875 0.18101562 -7.9375 0.11328125 C-5.28750806 0.01108741 -2.65155013 -0.02437087 0 0 Z " fill="#DCDADD" transform="translate(236,271)"/>
<path d="M0 0 C0.66 0 1.32 0 2 0 C5.30695897 13.47034619 7.3752901 26.09341694 7 40 C7.98226562 39.60167969 7.98226562 39.60167969 8.984375 39.1953125 C9.89703125 38.84210938 10.8096875 38.48890625 11.75 38.125 C12.63171875 37.77695312 13.5134375 37.42890625 14.421875 37.0703125 C25.46944125 33.76569115 36.34247375 33.74766241 47.75 33.875 C49.33332762 33.88505802 50.91666148 33.89417884 52.5 33.90234375 C56.33349088 33.92411505 60.16667418 33.95848614 64 34 C64 34.66 64 35.32 64 36 C60.26008131 36.84872694 56.7024199 37.15110278 52.875 37.3125 C37.23782093 38.37681062 20.22060585 41.9607524 6.3125 49.375 C2.82095893 51.08783147 2.41865717 51.14700044 -1 50 C0 39 1 28 2 17 C1.34 16.67 0.68 16.34 0 16 C0.66 16 1.32 16 2 16 C2 12.7 2 9.4 2 6 C1.34 6 0.68 6 0 6 C0 4.02 0 2.04 0 0 Z " fill="#F43D2F" transform="translate(187,281)"/>
<path d="M0 0 C0.60328125 0.33773437 1.2065625 0.67546875 1.828125 1.0234375 C2.62734375 1.46945313 3.4265625 1.91546875 4.25 2.375 C5.43335938 3.03628906 5.43335938 3.03628906 6.640625 3.7109375 C8.92113862 5.05112755 8.92113862 5.05112755 11.2578125 5.734375 C13 7 13 7 13.5390625 10.1171875 C13.56742188 11.35726562 13.59578125 12.59734375 13.625 13.875 C13.66556694 19.76055057 13.66556694 19.76055057 16 25 C16.66 25.33 17.32 25.66 18 26 C18.33 20.72 18.66 15.44 19 10 C19.33 10 19.66 10 20 10 C20.22201613 12.9162118 20.42808498 15.83207744 20.625 18.75 C20.68945312 19.575 20.75390625 20.4 20.8203125 21.25 C20.89765625 22.44882812 20.89765625 22.44882812 20.9765625 23.671875 C21.02893066 24.4050293 21.08129883 25.13818359 21.13525391 25.89355469 C20.97533814 28.38408405 20.31496483 29.89241803 19 32 C15.54896241 33.64153337 12.78514505 32.6146265 9.25 31.5625 C7.77273437 31.13130859 7.77273437 31.13130859 6.265625 30.69140625 C5.51796875 30.46324219 4.7703125 30.23507812 4 30 C4.65179251 33.81583379 5.46898975 36.02881405 8 39 C7.34 39.66 6.68 40.32 6 41 C0.47681862 32.79163558 -2.24756377 26.37775839 -2.3125 16.5 C-2.31805908 15.78787354 -2.32361816 15.07574707 -2.3293457 14.34204102 C-2.26134025 9.28696916 -1.37481734 4.86389561 0 0 Z " fill="#F88E32" transform="translate(125,240)"/>
<path d="M0 0 C0.91007812 0.00902344 1.82015625 0.01804687 2.7578125 0.02734375 C3.80582031 0.04474609 3.80582031 0.04474609 4.875 0.0625 C4.875 0.3925 4.875 0.7225 4.875 1.0625 C1.245 1.3925 -2.385 1.7225 -6.125 2.0625 C-6.125 2.7225 -6.125 3.3825 -6.125 4.0625 C-1.175 4.0625 3.775 4.0625 8.875 4.0625 C8.875 4.3925 8.875 4.7225 8.875 5.0625 C8.06047363 5.15748779 7.24594727 5.25247559 6.40673828 5.3503418 C-9.14625081 7.19875389 -24.16272797 9.25839752 -39.125 14.0625 C-41.90617033 14.81012643 -44.68763693 15.55591211 -47.47265625 16.2890625 C-48.29056641 16.67191406 -48.29056641 16.67191406 -49.125 17.0625 C-49.455 18.0525 -49.785 19.0425 -50.125 20.0625 C-49.135 20.3925 -48.145 20.7225 -47.125 21.0625 C-48.75 21.75 -48.75 21.75 -51.125 22.0625 C-54.375 20.625 -54.375 20.625 -57.125 19.0625 C-57.125 18.4025 -57.125 17.7425 -57.125 17.0625 C-57.785 17.0625 -58.445 17.0625 -59.125 17.0625 C-58.98828125 14.7265625 -58.98828125 14.7265625 -58.125 12.0625 C-55.60546875 10.5859375 -55.60546875 10.5859375 -52.3125 9.4375 C-51.25417969 9.05335938 -50.19585937 8.66921875 -49.10546875 8.2734375 C-39.33515197 5.18684671 -29.68474499 3.45945845 -19.5 2.4375 C-17.19496834 2.19861028 -14.89025832 1.95658931 -12.5859375 1.7109375 C-11.58353027 1.60958496 -10.58112305 1.50823242 -9.54833984 1.40380859 C-6.07262801 0.91428158 -3.6492295 -0.04678499 0 0 Z " fill="#F53B35" transform="translate(247.125,322.9375)"/>
<path d="M0 0 C0.81597656 0.5053125 1.63195312 1.010625 2.47265625 1.53125 C14.05311839 8.10376402 27.18717158 9.45962141 40.22167969 6.49462891 C43.35357001 5.5498343 46.38217184 4.36520458 49.4296875 3.1796875 C56.1269147 0.96681812 63.01158983 1.04882258 70 1 C70.98887207 0.99162109 71.97774414 0.98324219 72.99658203 0.97460938 C79.66489313 0.92976669 86.33182313 0.94253858 93 1 C93 1.33 93 1.66 93 2 C92.13310547 2.04487549 91.26621094 2.08975098 90.37304688 2.13598633 C87.12205933 2.3103946 83.87197845 2.49628626 80.62207031 2.68969727 C79.22193435 2.77072216 77.82153397 2.8473156 76.42089844 2.91918945 C66.46205501 3.43417957 58.85281856 4.79214675 50 9.5625 C39.86667561 14.65986924 28.68222938 15.8156981 17.625 12.8125 C11.04823601 10.52305178 5.15002154 6.66720702 0 2 C0 1.34 0 0.68 0 0 Z " fill="#C41B2D" transform="translate(163,267)"/>
<path d="M0 0 C0.91652344 0.28810547 0.91652344 0.28810547 1.8515625 0.58203125 C-11.13448099 12.43885356 -25.94295562 18.74449605 -43.4609375 18.83203125 C-44.48123047 18.85265625 -45.50152344 18.87328125 -46.55273438 18.89453125 C-52.55811273 18.92558686 -56.83256407 18.43115946 -62.1484375 15.58203125 C-62.1484375 15.25203125 -62.1484375 14.92203125 -62.1484375 14.58203125 C-61.31989258 14.51471802 -61.31989258 14.51471802 -60.47460938 14.44604492 C-37.55044394 12.71629876 -37.55044394 12.71629876 -15.796875 5.765625 C-13.1484375 4.58203125 -13.1484375 4.58203125 -9.9765625 3.53515625 C-7.07397556 2.68490138 -7.07397556 2.68490138 -4.5234375 0.89453125 C-2.1484375 -0.41796875 -2.1484375 -0.41796875 0 0 Z " fill="#F12A31" transform="translate(233.1484375,256.41796875)"/>
<path d="M0 0 C2.31 0.66 4.62 1.32 7 2 C7 3.98 7 5.96 7 8 C7.66 8 8.32 8 9 8 C9 11.3 9 14.6 9 18 C8.34 18 7.68 18 7 18 C7 18.66 7 19.32 7 20 C-0.72888819 21.95403042 -8.05042008 22.22428282 -16 22 C-16 21.34 -16 20.68 -16 20 C-12.7 19.67 -9.4 19.34 -6 19 C-5.67 17.68 -5.34 16.36 -5 15 C-3.73998856 12.19079416 -2.40185766 9.42649398 -1.05859375 6.65625 C0.24680847 3.85727205 0.24680847 3.85727205 0 0 Z " fill="#E52D33" transform="translate(180,279)"/>
<path d="M0 0 C1 4 1 4 -4 13 C4.91 13 13.82 13 23 13 C20.19245653 14.40377174 17.68338839 15.55480723 14.75 16.5625 C14.04359375 16.81128906 13.3371875 17.06007813 12.609375 17.31640625 C5.9550172 19.05968861 -0.67069915 19.13479716 -7.5 19.0625 C-8.32242188 19.05798828 -9.14484375 19.05347656 -9.9921875 19.04882812 C-11.99482396 19.03718489 -13.99742227 19.01925556 -16 19 C-15.20980469 18.21238281 -14.41960937 17.42476563 -13.60546875 16.61328125 C-12.15435238 15.15781371 -10.71299735 13.6917379 -9.3125 12.1875 C-8 11 -8 11 -6 11 C-6 10.01 -6 9.02 -6 8 C-5.34 8 -4.68 8 -4 8 C-3.71125 6.865625 -3.4225 5.73125 -3.125 4.5625 C-2.75375 3.386875 -2.3825 2.21125 -2 1 C-1.34 0.67 -0.68 0.34 0 0 Z " fill="#EF2930" transform="translate(245,247)"/>
<path d="M0 0 C0.66 0 1.32 0 2 0 C5.30695897 13.47034619 7.3752901 26.09341694 7 40 C8.32 40.33 9.64 40.66 11 41 C9.02 41 7.04 41 5 41 C5 37.04 5 33.08 5 29 C3.10108866 32.79782269 2.74593126 34.05022055 2.8125 38.0625 C2.81894531 38.91972656 2.82539063 39.77695312 2.83203125 40.66015625 C2.91409966 43.15477968 2.91409966 43.15477968 4 46 C5.32 46 6.64 46 8 46 C8 45.34 8 44.68 8 44 C9.87256417 43.49095343 11.74819341 42.99317545 13.625 42.5 C14.66914063 42.2215625 15.71328125 41.943125 16.7890625 41.65625 C19.95687418 41.00881404 22.77741467 40.8838708 26 41 C21.65685745 43.30452462 17.05776179 44.99676139 12.48828125 46.7890625 C8.55277891 48.34307835 8.55277891 48.34307835 4.78125 50.25 C2.48553848 51.21661538 1.33933484 50.67736686 -1 50 C0 39 1 28 2 17 C1.34 16.67 0.68 16.34 0 16 C0.66 16 1.32 16 2 16 C2 12.7 2 9.4 2 6 C1.34 6 0.68 6 0 6 C0 4.02 0 2.04 0 0 Z " fill="#DD4D45" transform="translate(187,281)"/>
<path d="M0 0 C1.98 0 3.96 0 6 0 C6 0.66 6 1.32 6 2 C6.66 2 7.32 2 8 2 C7.125 9.75 7.125 9.75 6 12 C5.76523913 14.37079493 5.58640369 16.74726811 5.4375 19.125 C5.3950415 19.79990479 5.35258301 20.47480957 5.30883789 21.17016602 C5.03247221 25.79164526 4.90556429 30.37265006 5 35 C-1.56720653 26.94024653 -2.20649375 16.44768635 -2.265625 6.41015625 C-1.98393329 3.8542182 -1.28944044 2.20535249 0 0 Z " fill="#F6941D" transform="translate(177,204)"/>
<path d="M0 0 C7.9456181 8.22939017 8.58705436 18.36550796 8.4699707 29.22192383 C8.08036258 40.90703395 4.67493469 50.06074892 -3 59 C-3.99 59.66 -4.98 60.32 -6 61 C-6 60.01 -6 59.02 -6 58 C-5.34 58 -4.68 58 -4 58 C-4 57.01 -4 56.02 -4 55 C-3.34 55 -2.68 55 -2 55 C-2 54.01 -2 53.02 -2 52 C-1.34 52 -0.68 52 0 52 C0 51.34 0 50.68 0 50 C0.66 50 1.32 50 2 50 C1.67 48.02 1.34 46.04 1 44 C1.66 44 2.32 44 3 44 C2.67 42.68 2.34 41.36 2 40 C2.99 39.34 3.98 38.68 5 38 C5.72965366 35.43717258 5.72965366 35.43717258 6 33 C4.35 34.32 2.7 35.64 1 37 C0.87625 36.360625 0.7525 35.72125 0.625 35.0625 C0.41875 34.381875 0.2125 33.70125 0 33 C-0.66 32.67 -1.32 32.34 -2 32 C-1 29 -1 29 0.4453125 27.60546875 C3.47803007 24.47369257 4.41679575 20.2329341 5 16 C4.37830977 13.03307185 3.29540096 10.78271317 2 8 C2 6.68 2 5.36 2 4 C1.34 4 0.68 4 0 4 C0 2.68 0 1.36 0 0 Z " fill="#EE323E" transform="translate(369,216)"/>
<path d="M0 0 C3.3 0 6.6 0 10 0 C10.75256684 11.28850266 6.94221472 22.03462556 0 31 C-0.66 31 -1.32 31 -2 31 C-1.8570752 30.40719238 -1.71415039 29.81438477 -1.56689453 29.20361328 C-0.11134006 22.67332217 0.24685613 16.54896675 0.125 9.875 C0.11146484 8.44027344 0.11146484 8.44027344 0.09765625 6.9765625 C0.07439993 4.65093013 0.03854303 2.32542925 0 0 Z " fill="#F84B28" transform="translate(314,195)"/>
<path d="M0 0 C0.77369934 -0.00952194 1.54739868 -0.01904388 2.34454346 -0.02885437 C4.83129599 -0.05321019 7.31783195 -0.06582794 9.8046875 -0.07421875 C10.64896301 -0.0781665 11.49323853 -0.08211426 12.36309814 -0.08618164 C25.83498965 -0.1156277 38.56731978 0.93808982 51.6796875 4.23828125 C51.6796875 4.56828125 51.6796875 4.89828125 51.6796875 5.23828125 C50.07561422 5.26536692 48.471409 5.28471608 46.8671875 5.30078125 C45.52720703 5.31818359 45.52720703 5.31818359 44.16015625 5.3359375 C41.6796875 5.23828125 41.6796875 5.23828125 38.6796875 4.23828125 C28.81128012 2.99431493 18.83225734 3.05201536 8.90307617 3.05297852 C6.35383937 3.05076968 3.8050214 3.03247497 1.25585938 3.01367188 C-0.39062355 3.01074064 -2.03710849 3.00875404 -3.68359375 3.0078125 C-4.43272537 3.00062698 -5.18185699 2.99344147 -5.95368958 2.98603821 C-11.06122621 3.00791716 -15.39084551 3.90563644 -20.3203125 5.23828125 C-22.7890625 5.55712891 -22.7890625 5.55712891 -24.8203125 5.65234375 C-25.56152344 5.69101562 -26.30273438 5.7296875 -27.06640625 5.76953125 C-27.81019531 5.80046875 -28.55398437 5.83140625 -29.3203125 5.86328125 C-30.09503906 5.90195312 -30.86976563 5.940625 -31.66796875 5.98046875 C-33.55174665 6.07349482 -35.43599506 6.156913 -37.3203125 6.23828125 C-37.3203125 5.90828125 -37.3203125 5.57828125 -37.3203125 5.23828125 C-33.98780565 4.58813519 -30.65417007 3.94396205 -27.3203125 3.30078125 C-26.38574219 3.11837891 -25.45117188 2.93597656 -24.48828125 2.74804688 C-23.10576172 2.48217773 -23.10576172 2.48217773 -21.6953125 2.2109375 C-20.85742188 2.04859619 -20.01953125 1.88625488 -19.15625 1.71899414 C-12.73960087 0.6313235 -6.49684492 0.06808996 0 0 Z " fill="#DD5A53" transform="translate(254.3203125,320.76171875)"/>
<path d="M0 0 C0.81597656 0.5053125 1.63195312 1.010625 2.47265625 1.53125 C15.24720075 8.76469541 29.76158953 8.88129723 44 6 C44.495 7.98 44.495 7.98 45 10 C44.37351563 9.97679687 43.74703125 9.95359375 43.1015625 9.9296875 C42.28429687 9.91164063 41.46703125 9.89359375 40.625 9.875 C39.40683594 9.84019531 39.40683594 9.84019531 38.1640625 9.8046875 C35.78657757 9.78629949 35.78657757 9.78629949 34 12 C31.8359375 12.1953125 31.8359375 12.1953125 29.375 12.125 C28.55773437 12.10695313 27.74046875 12.08890625 26.8984375 12.0703125 C26.27195313 12.04710937 25.64546875 12.02390625 25 12 C25 12.66 25 13.32 25 14 C17.42929893 12.44800628 11.22079539 10.65482149 5 6 C4.01 5.278125 3.02 4.55625 2 3.8125 C1.34 3.214375 0.68 2.61625 0 2 C0 1.34 0 0.68 0 0 Z " fill="#CF121F" transform="translate(163,267)"/>
<path d="M0 0 C0.33 0 0.66 0 1 0 C1.0501123 0.68924561 1.10022461 1.37849121 1.15185547 2.08862305 C2.28996733 18.83938105 2.28996733 18.83938105 4.6328125 35.44921875 C5.04697413 38.32632026 5.05950143 41.09718039 5 44 C3.515 44.495 3.515 44.495 2 45 C2 43.68 2 42.36 2 41 C1.34 40.67 0.68 40.34 0 40 C-0.33 32.74 -0.66 25.48 -1 18 C-2.52106634 21.04213267 -2.37429338 24.28047572 -2.5625 27.625 C-2.60568359 28.33140625 -2.64886719 29.0378125 -2.69335938 29.765625 C-2.79944751 31.51018537 -2.90022889 33.25506697 -3 35 C-3.66 34.67 -4.32 34.34 -5 34 C-4.7254852 22.14096057 -3.33673233 11.39144899 0 0 Z " fill="#DF544F" transform="translate(313,292)"/>
<path d="M0 0 C1.98 0 3.96 0 6 0 C6 0.66 6 1.32 6 2 C6.61488281 2.09796875 7.22976563 2.1959375 7.86328125 2.296875 C14.59636731 3.54254961 14.59636731 3.54254961 16.875 6.125 C17.431875 7.053125 17.431875 7.053125 18 8 C18.99 8 19.98 8 21 8 C21.99 8 22.98 8 24 8 C24 8.66 24 9.32 24 10 C24.66 10.33 25.32 10.66 26 11 C24.35 11.33 22.7 11.66 21 12 C20.67 12.99 20.34 13.98 20 15 C19.34515625 14.69707031 18.6903125 14.39414062 18.015625 14.08203125 C11.07327585 10.89521844 4.06729035 7.89845241 -3 5 C-1.68 4.67 -0.36 4.34 1 4 C0.67 2.68 0.34 1.36 0 0 Z " fill="#BBBBBD" transform="translate(266,273)"/>
<path d="M0 0 C0.33 0.99 0.66 1.98 1 3 C2.00160156 2.95875 3.00320313 2.9175 4.03515625 2.875 C8.18098858 3.00570604 11.47953774 3.79376388 15.4375 5 C16.67371094 5.37125 17.90992188 5.7425 19.18359375 6.125 C20.57771484 6.558125 20.57771484 6.558125 22 7 C22 7.33 22 7.66 22 8 C16.6625559 9.0955345 11.4855762 9.18349181 6.0625 9.1875 C5.19431641 9.19974609 4.32613281 9.21199219 3.43164062 9.22460938 C-1.77943096 9.23642586 -6.06768142 8.69779129 -11 7 C-11 6.34 -11 5.68 -11 5 C-8.03 4.34 -5.06 3.68 -2 3 C-2 2.34 -2 1.68 -2 1 C-1.34 0.67 -0.68 0.34 0 0 Z " fill="#ED2330" transform="translate(276,260)"/>
<path d="M0 0 C-4.04649647 2.69766432 -6.29174615 3.20257684 -11.125 3.5625 C-12.22070312 3.64628906 -13.31640625 3.73007812 -14.4453125 3.81640625 C-15.70988281 3.90728516 -15.70988281 3.90728516 -17 4 C-17.33 5.65 -17.66 7.3 -18 9 C-16.35 8.34 -14.7 7.68 -13 7 C-13 7.66 -13 8.32 -13 9 C-16.96 10.98 -16.96 10.98 -21 13 C-21 13.66 -21 14.32 -21 15 C-20.01 15.33 -19.02 15.66 -18 16 C-19.625 16.6875 -19.625 16.6875 -22 17 C-25.25 15.5625 -25.25 15.5625 -28 14 C-28 13.34 -28 12.68 -28 12 C-28.66 12 -29.32 12 -30 12 C-29.86328125 9.6640625 -29.86328125 9.6640625 -29 7 C-21.94152463 2.86340513 -8.1472519 -2.79882065 0 0 Z " fill="#F73F38" transform="translate(218,328)"/>
<path d="M0 0 C0 0.33 0 0.66 0 1 C-0.71019287 1.02916504 -1.42038574 1.05833008 -2.15209961 1.08837891 C-5.4159265 1.23870245 -8.67595727 1.43153412 -11.9375 1.625 C-13.61295898 1.69267578 -13.61295898 1.69267578 -15.32226562 1.76171875 C-22.16157704 2.20296465 -26.63002512 3.2930315 -32.06323242 7.55883789 C-35.13501048 9.84456912 -38.37696303 10.81314306 -42 12 C-42.99 12.33 -43.98 12.66 -45 13 C-45.73323796 15.01508358 -45.73323796 15.01508358 -46 17 C-47.32 17.33 -48.64 17.66 -50 18 C-50 18.66 -50 19.32 -50 20 C-51.375 21.625 -51.375 21.625 -53 23 C-53.66 23 -54.32 23 -55 23 C-51.64408927 13.19041478 -43.00463481 8.0024204 -34.2109375 3.41015625 C-23.30285408 -1.38037674 -11.6369058 -1.9394843 0 0 Z " fill="#F4D05F" transform="translate(185,203)"/>
<path d="M0 0 C0.74617584 0.00141495 1.49235168 0.0028299 2.26113892 0.00428772 C4.62465568 0.00984751 6.98807477 0.02239236 9.3515625 0.03515625 C10.96223821 0.04017645 12.57291541 0.04473845 14.18359375 0.04882812 C18.11462049 0.05980374 22.04557498 0.07704029 25.9765625 0.09765625 C25.9765625 0.75765625 25.9765625 1.41765625 25.9765625 2.09765625 C22.1300049 2.96600227 18.41093513 3.31407338 14.4765625 3.53515625 C7.56395697 3.98820228 0.80133398 4.92996279 -6.0234375 6.09765625 C-6.3534375 5.43765625 -6.6834375 4.77765625 -7.0234375 4.09765625 C-5.0434375 3.76765625 -3.0634375 3.43765625 -1.0234375 3.09765625 C-6.89317559 2.90830986 -11.98905706 3.38391675 -17.71484375 4.65234375 C-20.5144189 5.19236332 -23.18065158 5.24727656 -26.0234375 5.09765625 C-18.35126209 0.62222059 -8.66250894 -0.06272923 0 0 Z " fill="#D27372" transform="translate(225.0234375,314.90234375)"/>
<path d="M0 0 C1.25873645 1.03109262 2.51238333 2.06865042 3.75 3.125 C2.76 3.62 2.76 3.62 1.75 4.125 C-4.95588235 0.71323529 -4.95588235 0.71323529 -6.25 -1.875 C-7.89363134 -2.59659424 -9.56050386 -3.26851421 -11.25 -3.875 C-11.25 -4.535 -11.25 -5.195 -11.25 -5.875 C-15.73415755 -6.94413941 -20.16466671 -7.92248068 -24.75 -8.4375 C-28.25 -8.875 -28.25 -8.875 -29.25 -9.875 C-31.54151417 -9.96290975 -33.83572524 -9.98194038 -36.12890625 -9.97265625 C-36.8155687 -9.9712413 -37.50223114 -9.96982635 -38.20970154 -9.96836853 C-40.41067801 -9.96275479 -42.61155409 -9.95020007 -44.8125 -9.9375 C-46.30143083 -9.93248676 -47.79036324 -9.92792355 -49.27929688 -9.92382812 C-52.93623075 -9.91278093 -56.59310558 -9.89550713 -60.25 -9.875 C-43.77011735 -20.86158843 -13.90445991 -10.73250499 0 0 Z " fill="#F3D673" transform="translate(294.25,167.875)"/>
<path d="M0 0 C-0.33 0.99 -0.66 1.98 -1 3 C1.31 3 3.62 3 6 3 C6 3.33 6 3.66 6 4 C4.40285156 4.03867187 4.40285156 4.03867187 2.7734375 4.078125 C-7.08719231 4.42617408 -15.60459454 5.79871288 -25 9 C-25 9.33 -25 9.66 -25 10 C-28.63 10 -32.26 10 -36 10 C-32.23093348 8.11546674 -28.4647595 6.59782936 -24.53515625 5.09765625 C-21.94084409 4.0580298 -21.94084409 4.0580298 -19.55859375 2.4140625 C-16.56476249 0.75945652 -14.39905997 0.50759911 -11 0.3125 C-9.989375 0.24675781 -8.97875 0.18101562 -7.9375 0.11328125 C-5.28750806 0.01108741 -2.65155013 -0.02437087 0 0 Z " fill="#D3C7CB" transform="translate(236,271)"/>
<path d="M0 0 C0.721875 0.144375 1.44375 0.28875 2.1875 0.4375 C3.5796875 0.7159375 3.5796875 0.7159375 5 1 C6.66666667 1.33333333 8.33333333 1.66666667 10 2 C10 2.66 10 3.32 10 4 C10.64066406 4.12117188 11.28132813 4.24234375 11.94140625 4.3671875 C12.80636719 4.53476562 13.67132813 4.70234375 14.5625 4.875 C15.40941406 5.03742188 16.25632812 5.19984375 17.12890625 5.3671875 C20 6 20 6 23.15625 7.0625 C28.15076733 8.28067496 32.82097563 8.21592935 37.9375 8.125 C38.90751953 8.11597656 39.87753906 8.10695313 40.87695312 8.09765625 C43.25156407 8.07426107 45.62564776 8.04148176 48 8 C48 7.34 48 6.68 48 6 C50.31 6 52.62 6 55 6 C44.99680743 12.66879504 31.39273303 12.17126078 20 10 C16.71875 8.6953125 16.71875 8.6953125 13.5 7.125 C12.38238281 6.58875 11.26476562 6.0525 10.11328125 5.5 C9.08589844 5.005 8.05851562 4.51 7 4 C4.67772365 2.9695609 2.34362489 1.98105228 0 1 C0 0.67 0 0.34 0 0 Z " fill="#BB3643" transform="translate(294,281)"/>
<path d="M0 0 C0.33 0 0.66 0 1 0 C1.06058594 1.04800781 1.12117187 2.09601563 1.18359375 3.17578125 C1.26801738 4.55470048 1.35266447 5.93360605 1.4375 7.3125 C1.47681641 8.00279297 1.51613281 8.69308594 1.55664062 9.40429688 C1.74927415 12.47161535 2.02322717 15.06968152 3 18 C4.32 18 5.64 18 7 18 C7 17.34 7 16.68 7 16 C8.87256417 15.49095343 10.74819341 14.99317545 12.625 14.5 C13.66914063 14.2215625 14.71328125 13.943125 15.7890625 13.65625 C18.95687418 13.00881404 21.77741467 12.8838708 25 13 C20.65685745 15.30452462 16.05776179 16.99676139 11.48828125 18.7890625 C7.55277891 20.34307835 7.55277891 20.34307835 3.78125 22.25 C2 23 2 23 -2 22 C-1.34 14.74 -0.68 7.48 0 0 Z " fill="#E1675E" transform="translate(188,309)"/>
<path d="M0 0 C3.9140586 0.62853496 7.16025315 1.83125282 10.75 3.5 C11.71421875 3.9434375 12.6784375 4.386875 13.671875 4.84375 C16 6 16 6 17 7 C17.04063832 8.66617115 17.042721 10.33388095 17 12 C16.34 11.34 15.68 10.68 15 10 C14.67 11.65 14.34 13.3 14 15 C13.67 14.34 13.34 13.68 13 13 C10.6859378 12.26924352 8.35171131 11.59861742 6 11 C4.875 6.25 4.875 6.25 6 4 C5.195625 3.71125 4.39125 3.4225 3.5625 3.125 C1 2 1 2 0 0 Z " fill="#B4B4B5" transform="translate(298,284)"/>
<path d="M0 0 C0.33 0 0.66 0 1 0 C0.34 9.57 -0.32 19.14 -1 29 C-7.93 28.01 -14.86 27.02 -22 26 C-22 25.67 -22 25.34 -22 25 C-20.33343119 24.97242809 -18.66672149 24.95335197 -17 24.9375 C-16.071875 24.92589844 -15.14375 24.91429687 -14.1875 24.90234375 C-10.40011853 25.01837872 -6.75371317 25.48629141 -3 26 C-3.03480469 24.87722656 -3.06960938 23.75445312 -3.10546875 22.59765625 C-3.27999743 14.45207574 -3.31803202 7.60382337 0 0 Z " fill="#F1C6C5" transform="translate(310,297)"/>
<path d="M0 0 C0.495 0.99 0.495 0.99 1 2 C0.24380371 2.01981934 -0.51239258 2.03963867 -1.29150391 2.06005859 C-4.73633718 2.15564572 -8.18059201 2.26518891 -11.625 2.375 C-12.81480469 2.4059375 -14.00460937 2.436875 -15.23046875 2.46875 C-16.38417969 2.50742188 -17.53789062 2.54609375 -18.7265625 2.5859375 C-19.78439941 2.6173584 -20.84223633 2.6487793 -21.93212891 2.68115234 C-25.19942371 3.02072635 -27.91425774 3.90132125 -31 5 C-33.11765328 5.27307938 -35.24454111 5.48296941 -37.375 5.625 C-38.96441406 5.73714844 -38.96441406 5.73714844 -40.5859375 5.8515625 C-41.38257813 5.90054688 -42.17921875 5.94953125 -43 6 C-30.76830189 -2.15446541 -13.96482327 -0.45476629 0 0 Z " fill="#F4CB70" transform="translate(272,174)"/>
<path d="M0 0 C2.475 0.495 2.475 0.495 5 1 C5.38866045 8.64365552 4.28903298 15.68139457 2 23 C1.34 23.66 0.68 24.32 0 25 C0 16.75 0 8.5 0 0 Z " fill="#EE2C1C" transform="translate(314,195)"/>
<path d="M0 0 C2.31 0 4.62 0 7 0 C7 0.33 7 0.66 7 1 C5.35 1 3.7 1 2 1 C2.28875 1.61875 2.5775 2.2375 2.875 2.875 C5.87219339 11.2005372 6.27020317 19.34579291 6.125 28.125 C6.11597656 29.176875 6.10695312 30.22875 6.09765625 31.3125 C6.07435853 33.87524878 6.04165112 36.43749512 6 39 C6.99 39.33 7.98 39.66 9 40 C7.68 40 6.36 40 5 40 C4.95512451 39.4423999 4.91024902 38.8847998 4.86401367 38.31030273 C3.9889306 27.70141893 2.92648035 17.32699444 0.5859375 6.93359375 C0 4 0 4 0 0 Z " fill="#F1BCBB" transform="translate(189,281)"/>
<path d="M0 0 C-0.875 6.75 -0.875 6.75 -2 9 C-3.32 9 -4.64 9 -6 9 C-6 9.66 -6 10.32 -6 11 C-6.66 11 -7.32 11 -8 11 C-7 9 -6 7 -5 5 C-6.11375 5.66 -7.2275 6.32 -8.375 7 C-11.75 9 -11.75 9 -14 9 C-14.33 7.68 -14.66 6.36 -15 5 C-13.02 4.67 -11.04 4.34 -9 4 C-8.67 3.01 -8.34 2.02 -8 1 C-2.25 0 -2.25 0 0 0 Z " fill="#F6D45C" transform="translate(162,215)"/>
<path d="M0 0 C13.6332574 -0.3690205 13.6332574 -0.3690205 20 2 C20 2.66 20 3.32 20 4 C20.845625 4.103125 21.69125 4.20625 22.5625 4.3125 C26 5 26 5 29.375 6.5 C33.42969837 8.17780622 36.65559465 8.61891181 41 9 C40.67 9.66 40.34 10.32 40 11 C39.34 10.67 38.68 10.34 38 10 C38 10.66 38 11.32 38 12 C32.87809243 10.35057214 27.91179462 8.55298194 22.9375 6.5 C15.46746655 3.57040157 7.88881403 2.24560222 0 1 C0 0.67 0 0.34 0 0 Z " fill="#BD2C3C" transform="translate(256,269)"/>
<path d="M0 0 C0.91007812 0.00902344 1.82015625 0.01804687 2.7578125 0.02734375 C3.80582031 0.04474609 3.80582031 0.04474609 4.875 0.0625 C4.545 0.7225 4.215 1.3825 3.875 2.0625 C2.21178518 2.41265049 0.54465451 2.74447057 -1.125 3.0625 C-2.115 3.7225 -3.105 4.3825 -4.125 5.0625 C-6.82421875 5.4765625 -6.82421875 5.4765625 -9.8125 5.6875 C-11.30330078 5.79964844 -11.30330078 5.79964844 -12.82421875 5.9140625 C-13.58347656 5.96304687 -14.34273437 6.01203125 -15.125 6.0625 C-15.125 5.4025 -15.125 4.7425 -15.125 4.0625 C-17.435 4.0625 -19.745 4.0625 -22.125 4.0625 C-22.125 3.7325 -22.125 3.4025 -22.125 3.0625 C-20.53558594 2.86333984 -20.53558594 2.86333984 -18.9140625 2.66015625 C-17.52601721 2.48196125 -16.13799769 2.3035654 -14.75 2.125 C-14.05132812 2.03798828 -13.35265625 1.95097656 -12.6328125 1.86132812 C-8.15693587 1.28032491 -4.51789422 -0.05792172 0 0 Z " fill="#F13834" transform="translate(220.125,316.9375)"/>
<path d="M0 0 C2.31 0 4.62 0 7 0 C6.67 1.32 6.34 2.64 6 4 C6.99 3.67 7.98 3.34 9 3 C9.721875 3.804375 10.44375 4.60875 11.1875 5.4375 C14.02515689 8.02292072 15.27166147 8.68042813 19 9 C19 9.66 19 10.32 19 11 C20.299375 11.12375 21.59875 11.2475 22.9375 11.375 C25.15234375 11.5859375 25.15234375 11.5859375 27 12 C27.33 12.66 27.66 13.32 28 14 C16.94198407 13.63139947 7.83840593 8.66026034 0 1 C0 0.67 0 0.34 0 0 Z " fill="#E76C64" transform="translate(136,286)"/>
<path d="M0 0 C5.90832128 1.34127611 11.34957286 3.17129104 16.9375 5.5 C17.70384766 5.80808594 18.47019531 6.11617188 19.25976562 6.43359375 C24.87582397 8.75164795 24.87582397 8.75164795 26 11 C21.28596212 10.52060632 17.33420699 10.03165952 13 8 C12.67 8.66 12.34 9.32 12 10 C9 6.25 9 6.25 9 4 C7.88625 3.855625 6.7725 3.71125 5.625 3.5625 C2 3 2 3 0 2 C0 1.34 0 0.68 0 0 Z " fill="#C3B2B6" transform="translate(272,273)"/>
<path d="M0 0 C7.32521721 5.76306715 11.84560747 11.05784681 14.2265625 20.1796875 C14.48179687 20.78039062 14.73703125 21.38109375 15 22 C15.99 22.33 16.98 22.66 18 23 C16.35 23 14.7 23 13 23 C12.73445313 22.36191406 12.46890625 21.72382813 12.1953125 21.06640625 C11.84210938 20.24011719 11.48890625 19.41382813 11.125 18.5625 C10.77695312 17.73878906 10.42890625 16.91507813 10.0703125 16.06640625 C9.1755063 13.84253285 9.1755063 13.84253285 7 13 C6.67 13.66 6.34 14.32 6 15 C6.33 12.69 6.66 10.38 7 8 C6.071875 7.7834375 6.071875 7.7834375 5.125 7.5625 C3 7 3 7 1 6 C0.375 2.9375 0.375 2.9375 0 0 Z " fill="#EDA361" transform="translate(298,172)"/>
<path d="M0 0 C0.33 0 0.66 0 1 0 C1.87437137 9.83667789 -2.32727175 17.8513684 -8.4140625 25.3203125 C-10 27 -10 27 -12 28 C-12 27.01 -12 26.02 -12 25 C-11.34 25 -10.68 25 -10 25 C-10 24.01 -10 23.02 -10 22 C-9.34 22 -8.68 22 -8 22 C-8 21.01 -8 20.02 -8 19 C-7.34 19 -6.68 19 -6 19 C-6 18.34 -6 17.68 -6 17 C-5.34 17 -4.68 17 -4 17 C-4.33 15.02 -4.66 13.04 -5 11 C-4.34 11 -3.68 11 -3 11 C-3.33 9.68 -3.66 8.36 -4 7 C-3.01 6.34 -2.02 5.68 -1 5 C-0.27034634 2.43717258 -0.27034634 2.43717258 0 0 Z " fill="#C84654" transform="translate(375,249)"/>
<path d="M0 0 C0 1.32 0 2.64 0 4 C2.64 4 5.28 4 8 4 C8 4.33 8 4.66 8 5 C-4.54 4.67 -17.08 4.34 -30 4 C-30 3.67 -30 3.34 -30 3 C-29.42032471 2.98018066 -28.84064941 2.96036133 -28.2434082 2.93994141 C-25.59934063 2.84427399 -22.9560183 2.73476547 -20.3125 2.625 C-18.94448242 2.57859375 -18.94448242 2.57859375 -17.54882812 2.53125 C-11.42755351 2.26413983 -5.96897221 -0.34108413 0 0 Z " fill="#EFDFD9" transform="translate(288,317)"/>
<path d="M0 0 C0.33 0 0.66 0 1 0 C1.3125 2.1875 1.3125 2.1875 1 5 C-1.3125 7.5 -1.3125 7.5 -4 10 C-4.474375 10.825 -4.94875 11.65 -5.4375 12.5 C-7.52150015 15.83440024 -9.84587974 17.65118704 -13 20 C-13.66 20 -14.32 20 -15 20 C-15 20.66 -15 21.32 -15 22 C-20.41176471 26 -20.41176471 26 -23 26 C-23 25.34 -23 24.68 -23 24 C-21.33572064 22.71181224 -19.61641121 21.49433774 -17.875 20.3125 C-10.49394086 15.05786635 -6.02922973 9.31629557 -1.19921875 1.72265625 C-0.80347656 1.15417969 -0.40773438 0.58570313 0 0 Z " fill="#F64728" transform="translate(363,212)"/>
<path d="M0 0 C-9.24769485 6.1651299 -22.36181758 4.20130476 -33 4 C-29.96796476 1.97864318 -28.90785953 1.68325866 -25.4296875 1.3671875 C-24.5325 1.28339844 -23.6353125 1.19960938 -22.7109375 1.11328125 C-21.77507812 1.03464844 -20.83921875 0.95601563 -19.875 0.875 C-18.96234375 0.78863281 -18.0496875 0.70226562 -17.109375 0.61328125 C-11.38316073 0.09939023 -5.7483539 -0.08228727 0 0 Z " fill="#C93645" transform="translate(290,347)"/>
<path d="M0 0 C6.71353891 6.95330815 8.34502277 15.37010417 8.25 24.6875 C8.19863244 27.12827897 8.11017603 29.5608252 8 32 C7.34 31.67 6.68 31.34 6 31 C5.76618178 28.65293863 5.63914563 26.29493367 5.5625 23.9375 C5.30098584 18.03146429 4.35067863 13.41678118 2 8 C2 6.68 2 5.36 2 4 C1.34 4 0.68 4 0 4 C0 2.68 0 1.36 0 0 Z " fill="#CA4954" transform="translate(369,216)"/>
<path d="M0 0 C7.93726748 1.32287791 17.48274437 3.82975177 22.8515625 10.1953125 C23.23054688 10.79085937 23.60953125 11.38640625 24 12 C21.525 11.505 21.525 11.505 19 11 C18.67 10.01 18.34 9.02 18 8 C16.576875 8.0928125 16.576875 8.0928125 15.125 8.1875 C14.09375 8.125625 13.0625 8.06375 12 8 C11.34 7.01 10.68 6.02 10 5 C7.35308332 4.19907746 7.35308332 4.19907746 4.375 3.8125 C2.87066406 3.57466797 2.87066406 3.57466797 1.3359375 3.33203125 C0.56507813 3.22246094 -0.20578125 3.11289063 -1 3 C-0.67 2.01 -0.34 1.02 0 0 Z " fill="#EA926A" transform="translate(336,194)"/>
<path d="M0 0 C0 0.33 0 0.66 0 1 C-0.86689453 1.04487549 -1.73378906 1.08975098 -2.62695312 1.13598633 C-5.87794067 1.3103946 -9.12802155 1.49628626 -12.37792969 1.68969727 C-13.77806565 1.77072216 -15.17846603 1.8473156 -16.57910156 1.91918945 C-24.1798629 2.31223881 -31.01190231 2.76885289 -38 6 C-38.99 6.33 -39.98 6.66 -41 7 C-41 6.34 -41 5.68 -41 5 C-40.34 5 -39.68 5 -39 5 C-39 4.01 -39 3.02 -39 2 C-27.09351972 -1.96882676 -12.38466966 -0.1031659 0 0 Z " fill="#B42632" transform="translate(256,268)"/>
<path d="M0 0 C1.10844919 3.32534757 0.84454356 5.62182575 0 9 C-0.66 9 -1.32 9 -2 9 C-4.02214499 16.99955473 -5.52087184 24.75569133 -6 33 C-6.33 33 -6.66 33 -7 33 C-7.33062743 21.11578088 -5.96546944 11.83375152 -1 1 C-0.67 0.67 -0.34 0.34 0 0 Z " fill="#EEC573" transform="translate(129,226)"/>
<path d="M0 0 C0.66 0 1.32 0 2 0 C2 0.99 2 1.98 2 3 C2.66 3 3.32 3 4 3 C3.67 6.96 3.34 10.92 3 15 C1.68 15 0.36 15 -1 15 C-1.02693575 12.87506859 -1.04636628 10.75004088 -1.0625 8.625 C-1.07410156 7.44164062 -1.08570313 6.25828125 -1.09765625 5.0390625 C-1 2 -1 2 0 0 Z " fill="#E6DEE1" transform="translate(196,305)"/>
<path d="M0 0 C1.2065625 0.0309375 1.2065625 0.0309375 2.4375 0.0625 C-4.75648486 5.53827866 -10.40745634 8.98289164 -19.7421875 8.63671875 C-24.1413049 7.74105357 -26.7176076 5.42828819 -29.5625 2.0625 C-26.5625 2.0625 -26.5625 2.0625 -23.3125 4.0625 C-19.52845669 6.271178 -16.99485845 6.75027976 -12.5625 6.0625 C-8.52272772 4.22623987 -4.27282225 0.10421518 0 0 Z " fill="#FD843E" transform="translate(189.5625,261.9375)"/>
<path d="M0 0 C1.46373047 0.01353516 1.46373047 0.01353516 2.95703125 0.02734375 C4.06111328 0.04474609 4.06111328 0.04474609 5.1875 0.0625 C5.1875 0.7225 5.1875 1.3825 5.1875 2.0625 C4.24390625 2.07667969 3.3003125 2.09085938 2.328125 2.10546875 C-5.81714351 2.40805403 -12.03813162 3.43989266 -19.51953125 7.00390625 C-21.8125 8.0625 -21.8125 8.0625 -23.8125 8.0625 C-23.8125 7.0725 -23.8125 6.0825 -23.8125 5.0625 C-21.75097611 4.41355763 -19.68823742 3.7684736 -17.625 3.125 C-16.47644531 2.76535156 -15.32789063 2.40570313 -14.14453125 2.03515625 C-9.28166116 0.61563145 -5.07113002 -0.06109795 0 0 Z " fill="#F3D15A" transform="translate(250.8125,165.9375)"/>
<path d="M0 0 C0.33 1.32 0.66 2.64 1 4 C0.34 4 -0.32 4 -1 4 C-0.67 4.99 -0.34 5.98 0 7 C-1.07254877 9.51698632 -2.54803452 11.66805545 -4 14 C-4.66 14 -5.32 14 -6 14 C-6.33 16.64 -6.66 19.28 -7 22 C-7.66 22 -8.32 22 -9 22 C-8.37305613 13.22278582 -4.97795114 7.11135877 0 0 Z " fill="#F2D477" transform="translate(153,226)"/>
<path d="M0 0 C-6.43850116 3.75579234 -13.72470432 4.32238805 -21 4.625 C-21.77472656 4.66367187 -22.54945313 4.70234375 -23.34765625 4.7421875 C-25.23143415 4.83521357 -27.11568256 4.91863175 -29 5 C-29 4.67 -29 4.34 -29 4 C-25.66909377 3.32081305 -22.33495832 2.65897708 -19 2 C-18.06542969 1.80921875 -17.13085938 1.6184375 -16.16796875 1.421875 C-10.66582872 0.3445329 -5.60566572 -0.21153456 0 0 Z " fill="#E77C7A" transform="translate(246,322)"/>
<path d="M0 0 C2.31 0 4.62 0 7 0 C-1.41667071 5.61111381 -11.22645513 5.38523462 -21 5 C-21.33 4.34 -21.66 3.68 -22 3 C-14.74 2.67 -7.48 2.34 0 2 C0 1.34 0 0.68 0 0 Z " fill="#C65B63" transform="translate(342,287)"/>
<path d="M0 0 C-0.54914063 0.26039063 -1.09828125 0.52078125 -1.6640625 0.7890625 C-4.33985087 2.17617687 -6.83813008 3.74770809 -9.375 5.375 C-10.34179688 5.99117187 -11.30859375 6.60734375 -12.3046875 7.2421875 C-14.41171502 8.61633588 -16.45845663 10.0329613 -18.5 11.5 C-19.325 11.995 -20.15 12.49 -21 13 C-21.99 12.67 -22.98 12.34 -24 12 C-18.25 8 -18.25 8 -16 8 C-16 7.34 -16 6.68 -16 6 C-13.953125 4.52734375 -13.953125 4.52734375 -11.25 2.9375 C-10.36828125 2.41027344 -9.4865625 1.88304687 -8.578125 1.33984375 C-3.05794948 -1.52897474 -3.05794948 -1.52897474 0 0 Z " fill="#F45329" transform="translate(216,249)"/>
<path d="M0 0 C0.66 0 1.32 0 2 0 C2.33 0.66 2.66 1.32 3 2 C4.32 1.34 5.64 0.68 7 0 C6.34 3.96 5.68 7.92 5 12 C2.5 10.5 2.5 10.5 0 8 C-0.45442324 5.19861435 -0.23849927 2.86199125 0 0 Z " fill="#F5CE4D" transform="translate(134,234)"/>
<path d="M0 0 C0.33 0 0.66 0 1 0 C1 6.27 1 12.54 1 19 C-3.79503106 16.60248447 -3.79503106 16.60248447 -5 13 C-5.1953125 9.984375 -5.1953125 9.984375 -5.125 6.75 C-5.10695312 5.67234375 -5.08890625 4.5946875 -5.0703125 3.484375 C-5.04710937 2.66453125 -5.02390625 1.8446875 -5 1 C-4.67 1 -4.34 1 -4 1 C-3.86722656 1.85464844 -3.73445312 2.70929688 -3.59765625 3.58984375 C-3.42105469 4.69457031 -3.24445313 5.79929688 -3.0625 6.9375 C-2.80146484 8.59072266 -2.80146484 8.59072266 -2.53515625 10.27734375 C-2.28154864 12.90426929 -2.28154864 12.90426929 -1 14 C-0.67 9.38 -0.34 4.76 0 0 Z " fill="#EBB57B" transform="translate(143,248)"/>
<path d="M0 0 C0.66 0.33 1.32 0.66 2 1 C0.48739496 4.78151261 0.48739496 4.78151261 -1.8125 5.8125 C-4.79311625 7.43054882 -6.04653353 9.72229755 -7.8515625 12.5390625 C-8.23054687 13.02117187 -8.60953125 13.50328125 -9 14 C-9.66 14 -10.32 14 -11 14 C-11 15.32 -11 16.64 -11 18 C-12.32 18.33 -13.64 18.66 -15 19 C-13.54948082 14.32898289 -10.81405875 11.27641929 -7.5 7.8125 C-6.75169922 7.01295898 -6.75169922 7.01295898 -5.98828125 6.19726562 C-4.02143531 4.10123007 -2.03248986 2.03248986 0 0 Z " fill="#F8E289" transform="translate(209,170)"/>
<path d="M0 0 C0.99 0.99 1.98 1.98 3 3 C-0.10115615 7.52251939 -3.95394967 10.82408507 -9 13 C-9.99 12.67 -10.98 12.34 -12 12 C-12 11.34 -12 10.68 -12 10 C-9.36 9.34 -6.72 8.68 -4 8 C-4 6.68 -4 5.36 -4 4 C-2.68 4 -1.36 4 0 4 C0 2.68 0 1.36 0 0 Z " fill="#CD3246" transform="translate(360,274)"/>
<path d="M0 0 C0 0.33 0 0.66 0 1 C-9.02140429 1.75741925 -17.94706663 2.13534286 -27 2 C-19.6621144 -2.89192373 -8.34355231 -1.39059205 0 0 Z " fill="#F2CF76" transform="translate(185,203)"/>
<path d="M0 0 C3.9140586 0.62853496 7.16025315 1.83125282 10.75 3.5 C11.71421875 3.9434375 12.6784375 4.386875 13.671875 4.84375 C16 6 16 6 17 7 C17.04063832 8.66617115 17.042721 10.33388095 17 12 C16.34 11.34 15.68 10.68 15 10 C14.67 11.65 14.34 13.3 14 15 C13.67 15 13.34 15 13 15 C13.0928125 13.1746875 13.0928125 13.1746875 13.1875 11.3125 C13.05995989 9.06005172 13.05995989 9.06005172 12 7 C9.24344195 5.25056237 6.52900221 4.13568896 3.46875 3.0078125 C1 2 1 2 0 0 Z " fill="#CFA2A5" transform="translate(298,284)"/>
<path d="M0 0 C-1 3 -1 3 -4 5 C-5.32 5 -6.64 5 -8 5 C-7.67 6.65 -7.34 8.3 -7 10 C-7.66 10 -8.32 10 -9 10 C-9 9.34 -9 8.68 -9 8 C-9.66 8 -10.32 8 -11 8 C-10.9375 5.6875 -10.9375 5.6875 -10 3 C-6.49851158 1.11957103 -3.9919694 0 0 0 Z " fill="#DE6A6E" transform="translate(199,332)"/>
<path d="M0 0 C0.66 0.33 1.32 0.66 2 1 C0.90081184 1.98475214 -0.2045602 2.96260473 -1.3125 3.9375 C-2.23482422 4.75541016 -2.23482422 4.75541016 -3.17578125 5.58984375 C-6.68603946 8.303341 -9.917513 8.10841384 -14.1875 8.0625 C-15.81751953 8.04896484 -15.81751953 8.04896484 -17.48046875 8.03515625 C-18.31191406 8.02355469 -19.14335937 8.01195312 -20 8 C-20 7.67 -20 7.34 -20 7 C-18.741875 6.95875 -17.48375 6.9175 -16.1875 6.875 C-10.78575076 6.32625087 -6.8616071 3.97318914 -2.28515625 1.1796875 C-1.15400391 0.59574219 -1.15400391 0.59574219 0 0 Z " fill="#F65630" transform="translate(190,263)"/>
<path d="M0 0 C0.66 0.33 1.32 0.66 2 1 C1.34 1.66 0.68 2.32 0 3 C-0.28875 3.845625 -0.5775 4.69125 -0.875 5.5625 C-2 8 -2 8 -4.125 8.8125 C-4.74375 8.874375 -5.3625 8.93625 -6 9 C-6 9.66 -6 10.32 -6 11 C-7.375 12.625 -7.375 12.625 -9 14 C-9.66 14 -10.32 14 -11 14 C-9.61085525 9.70281047 -7.61968015 7.29312243 -4.375 4.1875 C-3.55773437 3.39730469 -2.74046875 2.60710937 -1.8984375 1.79296875 C-0.95871094 0.90544922 -0.95871094 0.90544922 0 0 Z " fill="#F5D874" transform="translate(141,212)"/>
<path d="M0 0 C2.91517292 1.07401108 4.77810176 1.77810176 7 4 C6.01 4 5.02 4 4 4 C4.53069061 7.82097239 5.49701566 10.06171403 8 13 C7.34 13.66 6.68 14.32 6 15 C2.47086025 9.98627748 0.38528505 6.16456078 0 0 Z " fill="#E46B4F" transform="translate(125,266)"/>
<path d="M0 0 C3.88958595 4.51693852 3.88958595 4.51693852 4.5 7.1875 C4.83890051 9.2250619 4.83890051 9.2250619 7.0625 10.25 C7.701875 10.4975 8.34125 10.745 9 11 C9 11.99 9 12.98 9 14 C7.68 14 6.36 14 5 14 C4.15973604 12.23244474 3.32801278 10.46082737 2.5 8.6875 C2.0359375 7.70136719 1.571875 6.71523438 1.09375 5.69921875 C0 3 0 3 0 0 Z " fill="#EE5F2B" transform="translate(158,260)"/>
<path d="M0 0 C-2.58717499 2.58717499 -4.2871783 2.54055528 -7.875 3.0625 C-11.30961816 3.57305135 -14.63622639 4.14774346 -18 5 C-18.66 5 -19.32 5 -20 5 C-20 4.34 -20 3.68 -20 3 C-6.30085709 -2.04705265 -6.30085709 -2.04705265 0 0 Z " fill="#F64E2B" transform="translate(241,242)"/>
<path d="M0 0 C0.99 0.33 1.98 0.66 3 1 C3.33 1.99 3.66 2.98 4 4 C-5.9 4 -15.8 4 -26 4 C-26 3.67 -26 3.34 -26 3 C-13.625 2.505 -13.625 2.505 -1 2 C-0.67 1.34 -0.34 0.68 0 0 Z " fill="#FDA035" transform="translate(305,185)"/>
<path d="M0 0 C0 0.33 0 0.66 0 1 C-2.8740422 1.50612064 -5.74902873 2.00506541 -8.625 2.5 C-9.43324219 2.64308594 -10.24148437 2.78617187 -11.07421875 2.93359375 C-15.43877864 3.67876251 -19.55238129 4.17272306 -24 4 C-16.43271894 -0.41424728 -8.48567084 -0.25457013 0 0 Z " fill="#DB625C" transform="translate(223,316)"/>
<path d="M0 0 C8.28982104 -0.43630637 15.95969329 1.22032737 24 3 C24 3.33 24 3.66 24 4 C17.87796547 4.1960794 12.78346223 4.2345195 7 2 C4.67305036 1.62468554 2.34023315 1.28082798 0 1 C0 0.67 0 0.34 0 0 Z " fill="#F54C2A" transform="translate(260,241)"/>
<path d="M0 0 C1.65 0 3.3 0 5 0 C5.33 1.32 5.66 2.64 6 4 C1.02936879 4.91297308 -3.02936879 4.91297308 -8 4 C-8 3.67 -8 3.34 -8 3 C-5.36 2.67 -2.72 2.34 0 2 C0 1.34 0 0.68 0 0 Z " fill="#C5C5C7" transform="translate(261,273)"/>
<path d="M0 0 C0 0.66 0 1.32 0 2 C-4.73036356 5.9580593 -7.86230717 7.62422289 -14 8 C-10.67417683 4.11987297 -5.34770586 0 0 0 Z " fill="#F6D668" transform="translate(229,180)"/>
<path d="M0 0 C0 0.66 0 1.32 0 2 C-0.845625 2.2475 -1.69125 2.495 -2.5625 2.75 C-5.28815513 3.74114732 -7.21535327 4.68342245 -9.625 6.1875 C-13 8 -13 8 -15.2109375 7.61328125 C-15.80132812 7.41089844 -16.39171875 7.20851562 -17 7 C-6.23282443 0 -6.23282443 0 0 0 Z " fill="#F3D979" transform="translate(234,158)"/>
<path d="M0 0 C-4.20324425 2.80216283 -6.58313851 3.2164899 -11.625 3.5625 C-12.81351563 3.64628906 -14.00203125 3.73007812 -15.2265625 3.81640625 C-16.14179688 3.87699219 -17.05703125 3.93757813 -18 4 C-15.48115349 1.48115349 -13.56355758 1.1742412 -10.125 0.3125 C-9.07570312 0.04050781 -8.02640625 -0.23148437 -6.9453125 -0.51171875 C-4.14833162 -0.97540921 -2.627808 -0.94575698 0 0 Z " fill="#E36F68" transform="translate(218,328)"/>
<path d="M0 0 C0.99 0.33 1.98 0.66 3 1 C-2.75 5 -2.75 5 -5 5 C-5 5.66 -5 6.32 -5 7 C-10.41176471 11 -10.41176471 11 -13 11 C-11.65432077 6.96296231 -9.63347727 6.08898484 -6.125 3.75 C-4.52011719 2.65945312 -4.52011719 2.65945312 -2.8828125 1.546875 C-1.93148437 1.03640625 -0.98015625 0.5259375 0 0 Z " fill="#FE833A" transform="translate(205,250)"/>
<path d="M0 0 C3.70649314 0.63070862 6.14618878 2.27668656 9.1875 4.4375 C10.06792969 5.05496094 10.94835937 5.67242187 11.85546875 6.30859375 C14 8 14 8 15 10 C6.31034483 6.62068966 6.31034483 6.62068966 5 4 C3.35636866 3.27840576 1.68949614 2.60648579 0 2 C0 1.34 0 0.68 0 0 Z " fill="#F0C775" transform="translate(283,162)"/>
<path d="M0 0 C1.32 0.99 2.64 1.98 4 3 C-1.61 3 -7.22 3 -13 3 C-13 2.67 -13 2.34 -13 2 C-11.21089097 1.47044766 -9.41860852 0.9516063 -7.625 0.4375 C-6.62726563 0.14746094 -5.62953125 -0.14257812 -4.6015625 -0.44140625 C-2 -1 -2 -1 0 0 Z " fill="#CD2036" transform="translate(228,347)"/>
<path d="M0 0 C0.66 0 1.32 0 2 0 C2 1.65 2 3.3 2 5 C0.02 5.99 0.02 5.99 -2 7 C-1.67 8.32 -1.34 9.64 -1 11 C-1.99 10.67 -2.98 10.34 -4 10 C-3.52651586 5.8333396 -2.95303159 3.07115285 0 0 Z " fill="#DE1B2C" transform="translate(373,249)"/>
<path d="M0 0 C0.33 0 0.66 0 1 0 C1.06058594 1.04800781 1.12117187 2.09601563 1.18359375 3.17578125 C1.26801738 4.55470048 1.35266447 5.93360605 1.4375 7.3125 C1.47681641 8.00279297 1.51613281 8.69308594 1.55664062 9.40429688 C1.74927415 12.47161535 2.02322717 15.06968152 3 18 C3.99 18.33 4.98 18.66 6 19 C4.02 19.33 2.04 19.66 0 20 C0 13.4 0 6.8 0 0 Z " fill="#ED6C63" transform="translate(188,309)"/>
<path d="M0 0 C0 0.66 0 1.32 0 2 C0.680625 1.835 1.36125 1.67 2.0625 1.5 C5.4164822 0.92910941 8.60389805 0.93340977 12 1 C8.71508627 3.18994248 7.16904361 3.35277339 3.3125 3.625 C2.31863281 3.69976562 1.32476562 3.77453125 0.30078125 3.8515625 C-0.83810547 3.92503906 -0.83810547 3.92503906 -2 4 C-2 3.34 -2 2.68 -2 2 C-4.31 2 -6.62 2 -9 2 C-9 1.67 -9 1.34 -9 1 C-2.25 0 -2.25 0 0 0 Z " fill="#E54B44" transform="translate(207,319)"/>
<path d="M0 0 C13.6332574 -0.3690205 13.6332574 -0.3690205 20 2 C20 2.33 20 2.66 20 3 C13.13484138 3.26404456 6.74153283 2.25841946 0 1 C0 0.67 0 0.34 0 0 Z " fill="#B82536" transform="translate(256,269)"/>
<path d="M0 0 C4.15269956 4.58228917 7 9.73448807 7 16 C6.34 16 5.68 16 5 16 C4.49166409 14.75336669 3.99368855 13.50250613 3.5 12.25 C3.2215625 11.55390625 2.943125 10.8578125 2.65625 10.140625 C2 8 2 8 2 4 C1.34 4 0.68 4 0 4 C0 2.68 0 1.36 0 0 Z " fill="#DF726E" transform="translate(369,216)"/>
<path d="M0 0 C0.33 0 0.66 0 1 0 C1.33910994 2.04071515 1.67102704 4.08262621 2 6.125 C2.185625 7.26195312 2.37125 8.39890625 2.5625 9.5703125 C2.96956049 12.76137602 3.07809902 15.78817791 3 19 C2.01 19.33 1.02 19.66 0 20 C0 13.4 0 6.8 0 0 Z " fill="#DD8186" transform="translate(315,317)"/>
<path d="M0 0 C0.33 0 0.66 0 1 0 C1.21192221 5.19209404 0.5912689 9.126739 -1 14 C-1.66 14 -2.32 14 -3 14 C-3.33 11.69 -3.66 9.38 -4 7 C-3.01 6.34 -2.02 5.68 -1 5 C-0.27034634 2.43717258 -0.27034634 2.43717258 0 0 Z " fill="#C4394A" transform="translate(375,249)"/>
<path d="M0 0 C0.66 0.33 1.32 0.66 2 1 C-1.19990508 3.74277578 -4.00499382 5.6302836 -8 7 C-8 7.66 -8 8.32 -8 9 C-8.99 9.33 -9.98 9.66 -11 10 C-11.33 9.01 -11.66 8.02 -12 7 C-10.04754815 5.80285445 -8.08785003 4.61751926 -6.125 3.4375 C-5.03445313 2.77621094 -3.94390625 2.11492187 -2.8203125 1.43359375 C-1.88960938 0.96050781 -0.95890625 0.48742187 0 0 Z " fill="#DA1C18" transform="translate(288,250)"/>
<path d="M0 0 C0.83144531 0.08378906 1.66289062 0.16757813 2.51953125 0.25390625 C4.14955078 0.40666016 4.14955078 0.40666016 5.8125 0.5625 C6.89144531 0.66691406 7.97039062 0.77132812 9.08203125 0.87890625 C12.06482454 1.17577609 12.06482454 1.17577609 15 0 C14.814375 0.61875 14.62875 1.2375 14.4375 1.875 C13.76313824 4.04160178 13.76313824 4.04160178 15 6 C10 4.33333333 5 2.66666667 0 1 C0 0.67 0 0.34 0 0 Z " fill="#F6C869" transform="translate(256,168)"/>
<path d="M0 0 C0 0.99 0 1.98 0 3 C-3.42094242 5.28062828 -4.68187222 5.21925007 -8.6875 5.125 C-10.17830078 5.09792969 -10.17830078 5.09792969 -11.69921875 5.0703125 C-12.45847656 5.04710937 -13.21773437 5.02390625 -14 5 C-11.33837939 3.62741538 -8.67751392 2.4299387 -5.875 1.375 C-5.19179687 1.11460937 -4.50859375 0.85421875 -3.8046875 0.5859375 C-2 0 -2 0 0 0 Z " fill="#E3BDBF" transform="translate(214,276)"/>
<path d="M0 0 C0.89203125 0.11085938 1.7840625 0.22171875 2.703125 0.3359375 C3.37859375 0.43132812 4.0540625 0.52671875 4.75 0.625 C1.709946 2.19323082 -0.81044329 3.28943349 -4.25 3.625 C-7.0625 2.6875 -7.0625 2.6875 -9.25 1.625 C-5.9353333 -0.40407167 -3.8184021 -0.50242133 0 0 Z " fill="#FD443C" transform="translate(218.25,330.375)"/>
<path d="M0 0 C1.98 0 3.96 0 6 0 C2.56464151 3.17175425 -0.15330091 3.45766505 -4.75 3.6875 C-5.92046875 3.75324219 -7.0909375 3.81898438 -8.296875 3.88671875 C-9.18890625 3.92410156 -10.0809375 3.96148437 -11 4 C-10.34 3.01 -9.68 2.02 -9 1 C-6.03 1.33 -3.06 1.66 0 2 C0 1.34 0 0.68 0 0 Z " fill="#C3172C" transform="translate(208,275)"/>
<path d="M0 0 C1.13199353 0.9080162 2.25532363 1.82683826 3.375 2.75 C4.00148438 3.26046875 4.62796875 3.7709375 5.2734375 4.296875 C7.08312318 6.08199481 8.00117455 7.67949644 9 10 C8.34 10 7.68 10 7 10 C7 9.34 7 8.68 7 8 C6.071875 7.7834375 6.071875 7.7834375 5.125 7.5625 C3 7 3 7 1 6 C0.375 2.9375 0.375 2.9375 0 0 Z " fill="#F1C773" transform="translate(298,172)"/>
<path d="M0 0 C0.33 0 0.66 0 1 0 C1 1.65 1 3.3 1 5 C3.64 4.67 6.28 4.34 9 4 C6.06171403 6.50298434 3.82097239 7.46930939 0 8 C-1.43088528 5.13822943 -0.59991697 3.06624227 0 0 Z " fill="#DE8884" transform="translate(187,324)"/>
<path d="M0 0 C1.32 0 2.64 0 4 0 C4 0.66 4 1.32 4 2 C5.299375 2.12375 6.59875 2.2475 7.9375 2.375 C10.15234375 2.5859375 10.15234375 2.5859375 12 3 C12.33 3.66 12.66 4.32 13 5 C4.80743982 4.64989059 4.80743982 4.64989059 1.4375 1.9375 C0.963125 1.298125 0.48875 0.65875 0 0 Z " fill="#DD5555" transform="translate(151,295)"/>
<path d="M0 0 C0.99 0.33 1.98 0.66 3 1 C3 1.66 3 2.32 3 3 C2.34 3 1.68 3 1 3 C0.5978125 4.1446875 0.5978125 4.1446875 0.1875 5.3125 C-0.94424112 7.87380884 -1.91223401 9.19692938 -4 11 C-4.1875 8.6875 -4.1875 8.6875 -4 6 C-2.5625 4.375 -2.5625 4.375 -1 3 C-0.67 2.01 -0.34 1.02 0 0 Z " fill="#F3D566" transform="translate(145,223)"/>
<path d="M0 0 C1.2065625 0.0309375 1.2065625 0.0309375 2.4375 0.0625 C2.7675 1.3825 3.0975 2.7025 3.4375 4.0625 C1.7875 4.7225 0.1375 5.3825 -1.5625 6.0625 C-1.5625 4.7425 -1.5625 3.4225 -1.5625 2.0625 C-2.2225 1.7325 -2.8825 1.4025 -3.5625 1.0625 C-2.5625 0.0625 -2.5625 0.0625 0 0 Z " fill="#D72D3C" transform="translate(312.5625,333.9375)"/>
<path d="M0 0 C-2.6860286 1.79068573 -4.6626589 2.66055791 -7.6875 3.625 C-8.49574219 3.88539063 -9.30398438 4.14578125 -10.13671875 4.4140625 C-10.75160156 4.60742188 -11.36648438 4.80078125 -12 5 C-12 3.68 -12 2.36 -12 1 C-7.93631321 0.22596442 -4.13574827 -0.0984702 0 0 Z " fill="#D5141C" transform="translate(304,267)"/>
<path d="M0 0 C1.98 0 3.96 0 6 0 C5.34 2.97 4.68 5.94 4 9 C3.34 7.68 2.68 6.36 2 5 C2.33 4.01 2.66 3.02 3 2 C2.01 2 1.02 2 0 2 C0 1.34 0 0.68 0 0 Z " fill="#F2402A" transform="translate(243,241)"/>
<path d="M0 0 C2.97 0 5.94 0 9 0 C8.67 0.99 8.34 1.98 8 3 C7.278125 2.773125 6.55625 2.54625 5.8125 2.3125 C2.24415308 1.91601701 0.86128901 2.95622213 -2 5 C-1.34 3.35 -0.68 1.7 0 0 Z " fill="#F67D2D" transform="translate(301,189)"/>
<path d="M0 0 C0.99 0.99 1.98 1.98 3 3 C2.34 4.32 1.68 5.64 1 7 C-0.32 7 -1.64 7 -3 7 C-3 3 -3 3 -1.5 1.25 C-1.005 0.8375 -0.51 0.425 0 0 Z " fill="#F9C924" transform="translate(208,183)"/>
<path d="M0 0 C1.6266848 0.28211877 3.25132896 0.57602375 4.875 0.875 C5.77992188 1.03742188 6.68484375 1.19984375 7.6171875 1.3671875 C10 2 10 2 12 4 C7.45194365 4.17835515 4.1205746 3.99785435 0 2 C0 1.34 0 0.68 0 0 Z " fill="#CF1022" transform="translate(294,279)"/>
<path d="M0 0 C0.33 0 0.66 0 1 0 C1 2.64 1 5.28 1 8 C-0.98 8.99 -0.98 8.99 -3 10 C-2.05066101 6.64566891 -1.10251165 3.30753495 0 0 Z " fill="#ED2830" transform="translate(374,234)"/>
<path d="M0 0 C0.99 0.33 1.98 0.66 3 1 C2.01 2.485 2.01 2.485 1 4 C0.34 4 -0.32 4 -1 4 C-1 5.32 -1 6.64 -1 8 C-2.32 8.33 -3.64 8.66 -5 9 C-3.7508258 5.54074837 -2.32472205 2.85306797 0 0 Z " fill="#F5D774" transform="translate(199,180)"/>
<path d="M0 0 C-1.33333333 0.66666667 -2.66666667 1.33333333 -4 2 C-5.546875 2.804375 -5.546875 2.804375 -7.125 3.625 C-10 5 -10 5 -12 5 C-12 4.01 -12 3.02 -12 2 C-7.82262526 0.40861915 -4.46839215 -0.21278058 0 0 Z " fill="#F2DA82" transform="translate(239,169)"/>
<path d="M0 0 C-1.4117783 0.53394179 -2.82970244 1.05165104 -4.25 1.5625 C-5.03890625 1.85253906 -5.8278125 2.14257812 -6.640625 2.44140625 C-9.19103452 3.04522837 -10.55322229 2.8473932 -13 2 C-8.63207758 -0.91194828 -5.00102117 -1.43657843 0 0 Z " fill="#E7222E" transform="translate(264,262)"/>
<path d="M0 0 C0.33 1.32 0.66 2.64 1 4 C0.34 4 -0.32 4 -1 4 C-0.67 4.99 -0.34 5.98 0 7 C-1.4375 10.1875 -1.4375 10.1875 -3 13 C-4.15019009 9.54942972 -3.80497206 8.69840756 -2.625 5.375 C-2.34914062 4.57835937 -2.07328125 3.78171875 -1.7890625 2.9609375 C-1 1 -1 1 0 0 Z " fill="#F7CE53" transform="translate(153,226)"/>
<path d="M0 0 C6.57142857 4 6.57142857 4 8 8 C6.68 7.67 5.36 7.34 4 7 C4 6.34 4 5.68 4 5 C3.01 5 2.02 5 1 5 C0.67 3.35 0.34 1.7 0 0 Z " fill="#EA866E" transform="translate(360,206)"/>
<path d="M0 0 C1.00000429 4.00001715 0.80688405 6.05523353 0 10 C-1.32 9.67 -2.64 9.34 -4 9 C-2.68 6.03 -1.36 3.06 0 0 Z " fill="#F4D768" transform="translate(190,194)"/>
<path d="M0 0 C1.48199902 0.44909061 2.96055236 0.90956564 4.4375 1.375 C5.26121094 1.63023437 6.08492188 1.88546875 6.93359375 2.1484375 C9 3 9 3 10 5 C7.36 4.67 4.72 4.34 2 4 C2 3.34 2 2.68 2 2 C1.34 2 0.68 2 0 2 C0 1.34 0 0.68 0 0 Z " fill="#CBA2A5" transform="translate(288,279)"/>
<path d="M0 0 C2.97 0.495 2.97 0.495 6 1 C6 1.66 6 2.32 6 3 C6.99 3.33 7.98 3.66 9 4 C6.52221994 4.88492145 5.33943414 5.11637742 2.8125 4.25 C1 3 1 3 0 0 Z " fill="#BC3D48" transform="translate(191,340)"/>
<path d="M0 0 C2.31 0 4.62 0 7 0 C3.39948847 2.40034102 0.03855465 4.32187705 -4.375 3.625 C-4.91125 3.41875 -5.4475 3.2125 -6 3 C-4.02 2.67 -2.04 2.34 0 2 C0 1.34 0 0.68 0 0 Z " fill="#D46976" transform="translate(342,287)"/>
<path d="M0 0 C0.66 0 1.32 0 2 0 C4.42857143 7.42857143 4.42857143 7.42857143 3 11 C2.67 9.35 2.34 7.7 2 6 C1.34 6 0.68 6 0 6 C0 4.02 0 2.04 0 0 Z " fill="#D6444E" transform="translate(187,281)"/>
<path d="M0 0 C7.625 1.75 7.625 1.75 11 4 C9.54119891 3.85892253 8.08296449 3.71197585 6.625 3.5625 C5.40683594 3.44068359 5.40683594 3.44068359 4.1640625 3.31640625 C2 3 2 3 0 2 C0 1.34 0 0.68 0 0 Z " fill="#CCA3A6" transform="translate(272,273)"/>
<path d="M0 0 C1.31823302 0.59155331 2.62947051 1.19871463 3.9375 1.8125 C5.03384766 2.31716797 5.03384766 2.31716797 6.15234375 2.83203125 C8 4 8 4 9 7 C5.13066838 6.42676569 2.84777943 4.61046448 0 2 C0 1.34 0 0.68 0 0 Z " fill="#C72112" transform="translate(163,267)"/>
<path d="M0 0 C-1 3 -1 3 -3.0625 4.1875 C-3.701875 4.455625 -4.34125 4.72375 -5 5 C-5.99 4.01 -6.98 3.02 -8 2 C-5.09399739 0.74335022 -3.20395416 0 0 0 Z " fill="#EA6F6C" transform="translate(199,332)"/>
<path d="M0 0 C0 0.66 0 1.32 0 2 C-2.3125 3.6875 -2.3125 3.6875 -5 5 C-5.99 4.67 -6.98 4.34 -8 4 C-8 3.34 -8 2.68 -8 2 C-2.25 0 -2.25 0 0 0 Z " fill="#C94050" transform="translate(356,282)"/>
<path d="M0 0 C3.96 0 7.92 0 12 0 C8 2 8 2 5 3 C2.3125 2.0625 2.3125 2.0625 0 1 C0 0.67 0 0.34 0 0 Z " fill="#E03228" transform="translate(171,271)"/>
<path d="M0 0 C2.31 0 4.62 0 7 0 C7 1.32 7 2.64 7 4 C3.73045798 3.43628586 2.17424117 2.50037734 0 0 Z " fill="#F9B23E" transform="translate(131,243)"/>
<path d="M0 0 C0.66 0 1.32 0 2 0 C3.38938077 1.96147874 4.7260411 3.96166576 6 6 C5.34 6.66 4.68 7.32 4 8 C0 2.25 0 2.25 0 0 Z " fill="#E8746D" transform="translate(127,273)"/>
<path d="M0 0 C0.33 0.66 0.66 1.32 1 2 C0.67 2.66 0.34 3.32 0 4 C-0.66 4 -1.32 4 -2 4 C-2 4.99 -2 5.98 -2 7 C-2.66 7 -3.32 7 -4 7 C-4 6.34 -4 5.68 -4 5 C-4.66 4.67 -5.32 4.34 -6 4 C-4.02 2.68 -2.04 1.36 0 0 Z " fill="#DC1A22" transform="translate(241,251)"/>
<path d="M0 0 C0.86625 0.3403125 0.86625 0.3403125 1.75 0.6875 C-4 4.6875 -4 4.6875 -6.25 4.6875 C-6.25 4.0275 -6.25 3.3675 -6.25 2.6875 C-3.02697842 -0.42041367 -3.02697842 -0.42041367 0 0 Z " fill="#FE6736" transform="translate(342.25,233.3125)"/>
<path d="M0 0 C0.33 0.99 0.66 1.98 1 3 C-0.65 3.66 -2.3 4.32 -4 5 C-4.33 3.68 -4.66 2.36 -5 1 C-2 0 -2 0 0 0 Z " fill="#F7CB48" transform="translate(152,219)"/>
<path d="M0 0 C1.32 0.33 2.64 0.66 4 1 C1.69 2.65 -0.62 4.3 -3 6 C-3.33 4.68 -3.66 3.36 -4 2 C-2.68 2 -1.36 2 0 2 C0 1.34 0 0.68 0 0 Z " fill="#F4D868" transform="translate(221,175)"/>
<path d="M0 0 C3.63 0.66 7.26 1.32 11 2 C11 2.33 11 2.66 11 3 C7.7 3 4.4 3 1 3 C0.67 2.01 0.34 1.02 0 0 Z " fill="#F25129" transform="translate(141,273)"/>
<path d="M0 0 C0.99 0.33 1.98 0.66 3 1 C0.06171403 3.50298434 -2.17902761 4.46930939 -6 5 C-4.06745228 2.9754262 -2.36841312 1.57894208 0 0 Z " fill="#F87B2C" transform="translate(224,239)"/>
</svg>
